solid Scott-Dog-Blue
facet normal 6.32444808128739e-017 -7.76472834882198e-017 -1.0
   outer loop
      vertex -34.6076447236534 9.05562832576821 0.0
      vertex -33.9774982457399 -8.4261834313646 0.0
      vertex -35.4433335747862 0.27324226837017 0.0
   endloop
endfacet
facet normal 6.32444808128739e-017 -7.76472834882198e-017 -1.0
   outer loop
      vertex -33.9774982457399 -8.4261834313646 0.0
      vertex -34.6076447236534 9.05562832576821 0.0
      vertex -31.5273825065048 17.3224696445969 0.0
   endloop
endfacet
facet normal 6.32444808128739e-017 -7.76472834882198e-017 -1.0
   outer loop
      vertex -33.9774982457399 -8.4261834313646 0.0
      vertex -31.5273825065048 17.3224696445969 0.0
      vertex -30.3100329917814 -16.44979728848 0.0
   endloop
endfacet
facet normal 6.32444808128739e-017 -7.76472834882198e-017 -1.0
   outer loop
      vertex -30.3100329917814 -16.44979728848 0.0
      vertex -31.5273825065048 17.3224696445969 0.0
      vertex -26.4124617030653 24.5103946505795 -5.63993296509579e-015
   endloop
endfacet
facet normal 6.32444808128739e-017 -7.76472834882198e-017 -1.0
   outer loop
      vertex -30.3100329917814 -16.44979728848 0.0
      vertex -26.4124617030653 24.5103946505795 -5.63993296509579e-015
      vertex -24.6908695091951 -23.2508032782624 5.63993296509579e-015
   endloop
endfacet
facet normal 6.32444808128739e-017 -7.76472834882198e-017 -1.0
   outer loop
      vertex -24.6908695091951 -23.2508032782624 5.63993296509579e-015
      vertex -26.4124617030653 24.5103946505795 -5.63993296509579e-015
      vertex -19.6114557132829 30.1295581331658 -5.63993296509579e-015
   endloop
endfacet
facet normal 6.32444808128739e-017 -7.76472834882198e-017 -1.0
   outer loop
      vertex -24.6908695091951 -23.2508032782624 5.63993296509579e-015
      vertex -19.6114557132829 30.1295581331658 -5.63993296509579e-015
      vertex -20.0901316462194 -26.5246840974029 -4.51194637207664e-014
   endloop
endfacet
facet normal 6.32444808128739e-017 -7.76472834882198e-017 -1.0
   outer loop
      vertex -20.0901316462194 -26.5246840974029 -4.51194637207664e-014
      vertex -19.6114557132829 30.1295581331658 -5.63993296509579e-015
      vertex -17.5029445032126 -28.3657240817019 5.63993296509579e-015
   endloop
endfacet
facet normal 6.32444808128739e-017 -7.76472834882198e-017 -1.0
   outer loop
      vertex -17.5029445032126 -28.3657240817019 5.63993296509579e-015
      vertex -19.6114557132829 30.1295581331658 -5.63993296509579e-015
      vertex -11.5878418561675 33.7970233871242 -5.63993296509579e-015
   endloop
endfacet
facet normal 6.32444808128739e-017 -7.76472834882198e-017 -1.0
   outer loop
      vertex -17.5029445032126 -28.3657240817019 5.63993296509579e-015
      vertex -11.5878418561675 33.7970233871242 -5.63993296509579e-015
      vertex -9.23610318438389 -31.4459862988505 5.63993296509579e-015
   endloop
endfacet
facet normal 6.32444808128739e-017 -7.76472834882198e-017 -1.0
   outer loop
      vertex -9.23610318438389 -31.4459862988505 5.63993296509579e-015
      vertex -11.5878418561675 33.7970233871242 -5.63993296509579e-015
      vertex -6.07935345947172 22.5635741624665 0.0
   endloop
endfacet
facet normal 6.32444808128739e-017 -7.76472834882198e-017 -1.0
   outer loop
      vertex -6.07935345947172 22.5635741624665 0.0
      vertex -11.5878418561675 33.7970233871242 -5.63993296509579e-015
      vertex -5.90898259091706 23.8576693879791 0.0
   endloop
endfacet
facet normal 6.32444808128739e-017 -7.76472834882198e-017 -1.0
   outer loop
      vertex -5.90898259091706 23.8576693879791 0.0
      vertex -11.5878418561675 33.7970233871242 -5.63993296509579e-015
      vertex -2.88841615643277 35.2628587161707 -5.63993296509579e-015
   endloop
endfacet
facet normal 6.32444808128739e-017 -7.76472834882198e-017 -1.0
   outer loop
      vertex -5.90898259091706 23.8576693879791 0.0
      vertex -2.88841615643277 35.2628587161707 -5.63993296509579e-015
      vertex -5.40948047839391 25.0635741624665 0.0
   endloop
endfacet
facet normal 6.32444808128739e-017 -7.76472834882198e-017 -1.0
   outer loop
      vertex -5.40948047839391 25.0635741624665 0.0
      vertex -2.88841615643277 35.2628587161707 -5.63993296509579e-015
      vertex -4.61488736540445 26.0991080683993 0.0
   endloop
endfacet
facet normal 6.32444808128739e-017 -7.76472834882198e-017 -1.0
   outer loop
      vertex -4.61488736540445 26.0991080683993 0.0
      vertex -2.88841615643277 35.2628587161707 -5.63993296509579e-015
      vertex -3.57935345947172 26.8937011813887 0.0
   endloop
endfacet
facet normal 6.32444808128739e-017 -7.76472834882198e-017 -1.0
   outer loop
      vertex -3.57935345947172 26.8937011813887 0.0
      vertex -2.88841615643277 35.2628587161707 -5.63993296509579e-015
      vertex -2.37344868498432 27.3932032939119 0.0
   endloop
endfacet
facet normal 6.32444808128739e-017 -7.76472834882198e-017 -1.0
   outer loop
      vertex -2.37344868498432 27.3932032939119 0.0
      vertex -2.88841615643277 35.2628587161707 -5.63993296509579e-015
      vertex 5.8939699009653 34.4271698650378 -5.63993296509579e-015
   endloop
endfacet
facet normal 6.32444808128739e-017 -7.76472834882198e-017 -1.0
   outer loop
      vertex -2.37344868498432 27.3932032939119 0.0
      vertex 5.8939699009653 34.4271698650378 -5.63993296509579e-015
      vertex -1.07935345947172 27.5635741624665 0.0
   endloop
endfacet
facet normal 6.32444808128739e-017 -7.76472834882198e-017 -1.0
   outer loop
      vertex -1.07935345947172 27.5635741624665 0.0
      vertex 5.8939699009653 34.4271698650378 -5.63993296509579e-015
      vertex 0.214741766040886 27.3932032939119 0.0
   endloop
endfacet
facet normal 6.32444808128739e-017 -7.76472834882198e-017 -1.0
   outer loop
      vertex 0.214741766040886 27.3932032939119 0.0
      vertex 5.8939699009653 34.4271698650378 -5.63993296509579e-015
      vertex 1.42064654052828 26.8937011813887 0.0
   endloop
endfacet
facet normal 6.32444808128739e-017 -7.76472834882198e-017 -1.0
   outer loop
      vertex 1.42064654052828 26.8937011813887 0.0
      vertex 5.8939699009653 34.4271698650378 -5.63993296509579e-015
      vertex 2.45618044646102 26.0991080683993 0.0
   endloop
endfacet
facet normal 6.32444808128739e-017 -7.76472834882198e-017 -1.0
   outer loop
      vertex 2.45618044646102 26.0991080683993 0.0
      vertex 5.8939699009653 34.4271698650378 -5.63993296509579e-015
      vertex 3.25077355945048 25.0635741624665 0.0
   endloop
endfacet
facet normal 6.32444808128739e-017 -7.76472834882198e-017 -1.0
   outer loop
      vertex 3.25077355945048 25.0635741624665 0.0
      vertex 5.8939699009653 34.4271698650378 -5.63993296509579e-015
      vertex 3.75027567197363 23.8576693879792 0.0
   endloop
endfacet
facet normal 6.32444808128739e-017 -7.76472834882198e-017 -1.0
   outer loop
      vertex 3.75027567197363 23.8576693879792 0.0
      vertex 5.8939699009653 34.4271698650378 -5.63993296509579e-015
      vertex 3.92064654052828 22.5635741624665 0.0
   endloop
endfacet
facet normal 6.32444808128739e-017 -7.76472834882198e-017 -1.0
   outer loop
      vertex -6.07935345947172 22.5635741624665 0.0
      vertex -0.45371712698577 -32.2816751499833 5.63993296509579e-015
      vertex -9.23610318438389 -31.4459862988505 5.63993296509579e-015
   endloop
endfacet
facet normal 6.32444808128739e-017 -7.76472834882198e-017 -1.0
   outer loop
      vertex -0.45371712698577 -32.2816751499833 5.63993296509579e-015
      vertex -6.07935345947172 22.5635741624665 0.0
      vertex -5.90898259091706 21.2694789369539 0.0
   endloop
endfacet
facet normal 6.32444808128739e-017 -7.76472834882198e-017 -1.0
   outer loop
      vertex -0.45371712698577 -32.2816751499833 5.63993296509579e-015
      vertex -5.90898259091706 21.2694789369539 0.0
      vertex -5.40948047839391 20.0635741624665 0.0
   endloop
endfacet
facet normal 6.32444808128739e-017 -7.76472834882198e-017 -1.0
   outer loop
      vertex -0.45371712698577 -32.2816751499833 5.63993296509579e-015
      vertex -5.40948047839391 20.0635741624665 0.0
      vertex -4.61488736540445 19.0280402565338 0.0
   endloop
endfacet
facet normal 6.32444808128739e-017 -7.76472834882198e-017 -1.0
   outer loop
      vertex -0.45371712698577 -32.2816751499833 5.63993296509579e-015
      vertex -4.61488736540445 19.0280402565338 0.0
      vertex -3.57935345947171 18.2334471435443 0.0
   endloop
endfacet
facet normal 6.32444808128739e-017 -7.76472834882198e-017 -1.0
   outer loop
      vertex -0.45371712698577 -32.2816751499833 5.63993296509579e-015
      vertex -3.57935345947171 18.2334471435443 0.0
      vertex -2.37344868498432 17.7339450310212 0.0
   endloop
endfacet
facet normal 6.32444808128739e-017 -7.76472834882198e-017 -1.0
   outer loop
      vertex -0.45371712698577 -32.2816751499833 5.63993296509579e-015
      vertex -2.37344868498432 17.7339450310212 0.0
      vertex -1.07935345947172 17.5635741624665 0.0
   endloop
endfacet
facet normal 6.32444808128739e-017 -7.76472834882198e-017 -1.0
   outer loop
      vertex -0.45371712698577 -32.2816751499833 5.63993296509579e-015
      vertex -1.07935345947172 17.5635741624665 0.0
      vertex 0.214741766040889 17.7339450310212 0.0
   endloop
endfacet
facet normal 6.32444808128739e-017 -7.76472834882198e-017 -1.0
   outer loop
      vertex -0.45371712698577 -32.2816751499833 5.63993296509579e-015
      vertex 0.214741766040889 17.7339450310212 0.0
      vertex 8.24570857274901 -30.815839820937 5.63993296509579e-015
   endloop
endfacet
facet normal 6.32444808128739e-017 -7.76472834882198e-017 -1.0
   outer loop
      vertex 8.24570857274901 -30.815839820937 5.63993296509579e-015
      vertex 0.214741766040889 17.7339450310212 0.0
      vertex 1.42064654052829 18.2334471435443 0.0
   endloop
endfacet
facet normal 6.32444808128739e-017 -7.76472834882198e-017 -1.0
   outer loop
      vertex 8.24570857274901 -30.815839820937 5.63993296509579e-015
      vertex 1.42064654052829 18.2334471435443 0.0
      vertex 2.45618044646102 19.0280402565338 0.0
   endloop
endfacet
facet normal 6.32444808128739e-017 -7.76472834882198e-017 -1.0
   outer loop
      vertex 8.24570857274901 -30.815839820937 5.63993296509579e-015
      vertex 2.45618044646102 19.0280402565338 0.0
      vertex 3.25077355945048 20.0635741624665 0.0
   endloop
endfacet
facet normal 6.32444808128739e-017 -7.76472834882198e-017 -1.0
   outer loop
      vertex 8.24570857274901 -30.815839820937 5.63993296509579e-015
      vertex 3.25077355945048 20.0635741624665 0.0
      vertex 3.75027567197363 21.2694789369539 0.0
   endloop
endfacet
facet normal 6.32444808128739e-017 -7.76472834882198e-017 -1.0
   outer loop
      vertex 8.24570857274901 -30.815839820937 5.63993296509579e-015
      vertex 3.75027567197363 21.2694789369539 0.0
      vertex 3.92064654052828 22.5635741624665 0.0
   endloop
endfacet
facet normal 6.32444808128739e-017 -7.76472834882198e-017 -1.0
   outer loop
      vertex 8.24570857274901 -30.815839820937 5.63993296509579e-015
      vertex 3.92064654052828 22.5635741624665 0.0
      vertex 5.8939699009653 34.4271698650378 -5.63993296509579e-015
   endloop
endfacet
facet normal 6.32444808128739e-017 -7.76472834882198e-017 -1.0
   outer loop
      vertex 8.24570857274901 -30.815839820937 5.63993296509579e-015
      vertex 5.8939699009653 34.4271698650378 -5.63993296509579e-015
      vertex 14.160811219794 31.3469076478892 -5.63993296509579e-015
   endloop
endfacet
facet normal 6.32444808128739e-017 -7.76472834882198e-017 -1.0
   outer loop
      vertex 8.24570857274901 -30.815839820937 5.63993296509579e-015
      vertex 14.160811219794 31.3469076478892 -5.63993296509579e-015
      vertex 16.2693224298643 -27.1483745669784 5.63993296509579e-015
   endloop
endfacet
facet normal 6.32444808128739e-017 -7.76472834882198e-017 -1.0
   outer loop
      vertex 16.2693224298643 -27.1483745669784 5.63993296509579e-015
      vertex 14.160811219794 31.3469076478892 -5.63993296509579e-015
      vertex 21.3487362257765 26.2319868444497 -5.63993296509579e-015
   endloop
endfacet
facet normal 6.32444808128739e-017 -7.76472834882198e-017 -1.0
   outer loop
      vertex 16.2693224298643 -27.1483745669784 5.63993296509579e-015
      vertex 21.3487362257765 26.2319868444497 -5.63993296509579e-015
      vertex 23.0703284196468 -21.5292110843922 5.63993296509579e-015
   endloop
endfacet
facet normal 6.32444808128739e-017 -7.76472834882198e-017 -1.0
   outer loop
      vertex 23.0703284196468 -21.5292110843922 5.63993296509579e-015
      vertex 21.3487362257765 26.2319868444497 -5.63993296509579e-015
      vertex 26.9678997083629 19.4309808546673 0.0
   endloop
endfacet
facet normal 6.32444808128739e-017 -7.76472834882198e-017 -1.0
   outer loop
      vertex 23.0703284196468 -21.5292110843922 5.63993296509579e-015
      vertex 26.9678997083629 19.4309808546673 0.0
      vertex 28.1852492230863 -14.3412860784097 0.0
   endloop
endfacet
facet normal 6.32444808128739e-017 -7.76472834882198e-017 -1.0
   outer loop
      vertex 28.1852492230863 -14.3412860784097 0.0
      vertex 26.9678997083629 19.4309808546673 0.0
      vertex 30.6353649623213 11.407366997552 0.0
   endloop
endfacet
facet normal 6.32444808128739e-017 -7.76472834882198e-017 -1.0
   outer loop
      vertex 28.1852492230863 -14.3412860784097 0.0
      vertex 30.6353649623213 11.407366997552 0.0
      vertex 29.7253803316605 -10.2078654189953 0.0
   endloop
endfacet
facet normal 6.32444808128739e-017 -7.76472834882198e-017 -1.0
   outer loop
      vertex 29.7253803316605 -10.2078654189953 0.0
      vertex 30.6353649623213 11.407366997552 0.0
      vertex 31.2655114402349 -6.07444475958096 0.0
   endloop
endfacet
facet normal 6.32444808128739e-017 -7.76472834882198e-017 -1.0
   outer loop
      vertex 31.2655114402349 -6.07444475958096 0.0
      vertex 30.6353649623213 11.407366997552 0.0
      vertex 32.1012002913677 2.70794129781706 0.0
   endloop
endfacet
facet normal -6.32444808128739e-017 7.76472834882198e-017 1.0
   outer loop
      vertex -33.9774982457399 -8.4261834313646 10.0
      vertex -34.6076447236534 9.05562832576821 10.0
      vertex -35.4433335747862 0.27324226837017 10.0
   endloop
endfacet
facet normal -6.32444808128739e-017 7.76472834882198e-017 1.0
   outer loop
      vertex -34.6076447236534 9.05562832576821 10.0
      vertex -33.9774982457399 -8.4261834313646 10.0
      vertex -31.5273825065048 17.3224696445969 10.0
   endloop
endfacet
facet normal -6.32444808128739e-017 7.76472834882198e-017 1.0
   outer loop
      vertex -31.5273825065048 17.3224696445969 10.0
      vertex -33.9774982457399 -8.4261834313646 10.0
      vertex -31.3379563317725 0.421224013405024 10.0
   endloop
endfacet
facet normal -6.32444808128739e-017 7.76472834882198e-017 1.0
   outer loop
      vertex -31.3379563317725 0.421224013405024 10.0
      vertex -33.9774982457399 -8.4261834313646 10.0
      vertex -30.3100329917814 -16.44979728848 10.0
   endloop
endfacet
facet normal -6.32444808128739e-017 7.76472834882198e-017 1.0
   outer loop
      vertex -31.3379563317725 0.421224013405024 10.0
      vertex -30.3100329917814 -16.44979728848 10.0
      vertex -30.050308833996 -7.22069422419373 10.0
   endloop
endfacet
facet normal -6.32444808128739e-017 7.76472834882198e-017 1.0
   outer loop
      vertex -30.050308833996 -7.22069422419373 10.0
      vertex -30.3100329917814 -16.44979728848 10.0
      vertex -24.6908695091951 -23.2508032782624 10.0
   endloop
endfacet
facet normal -6.32444808128739e-017 7.76472834882198e-017 1.0
   outer loop
      vertex -30.050308833996 -7.22069422419373 10.0
      vertex -24.6908695091951 -23.2508032782624 10.0
      vertex -26.8286628797304 -14.2689527164766 10.0
   endloop
endfacet
facet normal -6.32444808128739e-017 7.76472834882198e-017 1.0
   outer loop
      vertex -26.8286628797304 -14.2689527164766 10.0
      vertex -24.6908695091951 -23.2508032782624 10.0
      vertex -21.8925683167371 -20.2432242949925 10.0
   endloop
endfacet
facet normal -6.32444808128739e-017 7.76472834882198e-017 1.0
   outer loop
      vertex -21.8925683167371 -20.2432242949925 10.0
      vertex -24.6908695091951 -23.2508032782624 10.0
      vertex -20.0901316462194 -26.5246840974029 9.99999999999996
   endloop
endfacet
facet normal -6.32444808128739e-017 7.76472834882198e-017 1.0
   outer loop
      vertex -21.8925683167371 -20.2432242949925 10.0
      vertex -20.0901316462194 -26.5246840974029 9.99999999999996
      vertex -17.7287147144853 -23.206218677225 9.99999999999996
   endloop
endfacet
facet normal -6.32444808128739e-017 7.76472834882198e-017 1.0
   outer loop
      vertex -17.7287147144853 -23.206218677225 9.99999999999996
      vertex -20.0901316462194 -26.5246840974029 9.99999999999996
      vertex -17.5029445032126 -28.3657240817019 10.0
   endloop
endfacet
facet normal -6.32444808128739e-017 7.76472834882198e-017 1.0
   outer loop
      vertex -17.7287147144853 -23.206218677225 9.99999999999996
      vertex -17.5029445032126 -28.3657240817019 10.0
      vertex -15.5784118322022 -24.7363722246161 10.0
   endloop
endfacet
facet normal -6.32444808128739e-017 7.76472834882198e-017 1.0
   outer loop
      vertex -15.5784118322022 -24.7363722246161 10.0
      vertex -17.5029445032126 -28.3657240817019 10.0
      vertex -9.23610318438389 -31.4459862988505 10.0
   endloop
endfacet
facet normal -6.32444808128739e-017 7.76472834882198e-017 1.0
   outer loop
      vertex -15.5784118322022 -24.7363722246161 10.0
      vertex -9.23610318438389 -31.4459862988505 10.0
      vertex -8.31649275590989 -27.4421958992216 10.0
   endloop
endfacet
facet normal -6.32444808128739e-017 7.76472834882198e-017 1.0
   outer loop
      vertex -8.31649275590989 -27.4421958992216 10.0
      vertex -9.23610318438389 -31.4459862988505 10.0
      vertex -0.453717126985771 -32.2816751499833 10.0
   endloop
endfacet
facet normal -6.32444808128739e-017 7.76472834882198e-017 1.0
   outer loop
      vertex -8.31649275590989 -27.4421958992216 10.0
      vertex -0.453717126985771 -32.2816751499833 10.0
      vertex -0.601698872020646 -28.1762979069696 10.0
   endloop
endfacet
facet normal -6.32444808128739e-017 7.76472834882198e-017 1.0
   outer loop
      vertex -0.601698872020646 -28.1762979069696 10.0
      vertex -0.453717126985771 -32.2816751499833 10.0
      vertex 7.04021936557812 -26.8886504091931 10.0
   endloop
endfacet
facet normal -6.32444808128739e-017 7.76472834882198e-017 1.0
   outer loop
      vertex 7.04021936557812 -26.8886504091931 10.0
      vertex -0.453717126985771 -32.2816751499833 10.0
      vertex 8.24570857274901 -30.815839820937 10.0
   endloop
endfacet
facet normal -6.32444808128739e-017 7.76472834882198e-017 1.0
   outer loop
      vertex 7.04021936557812 -26.8886504091931 10.0
      vertex 8.24570857274901 -30.815839820937 10.0
      vertex 14.088477857861 -23.6670044549275 10.0
   endloop
endfacet
facet normal -6.32444808128739e-017 7.76472834882198e-017 1.0
   outer loop
      vertex 14.088477857861 -23.6670044549275 10.0
      vertex 8.24570857274901 -30.815839820937 10.0
      vertex 16.2693224298643 -27.1483745669784 10.0
   endloop
endfacet
facet normal -6.32444808128739e-017 7.76472834882198e-017 1.0
   outer loop
      vertex 14.088477857861 -23.6670044549275 10.0
      vertex 16.2693224298643 -27.1483745669784 10.0
      vertex 20.0627494363769 -18.7309098919342 10.0
   endloop
endfacet
facet normal -6.32444808128739e-017 7.76472834882198e-017 1.0
   outer loop
      vertex 20.0627494363769 -18.7309098919342 10.0
      vertex 16.2693224298643 -27.1483745669784 10.0
      vertex 23.0703284196468 -21.5292110843922 10.0
   endloop
endfacet
facet normal -6.32444808128739e-017 7.76472834882198e-017 1.0
   outer loop
      vertex 20.0627494363769 -18.7309098919342 10.0
      vertex 23.0703284196468 -21.5292110843922 10.0
      vertex 24.5558973660005 -12.4167534073993 10.0
   endloop
endfacet
facet normal -6.32444808128739e-017 7.76472834882198e-017 1.0
   outer loop
      vertex 24.5558973660005 -12.4167534073993 10.0
      vertex 23.0703284196468 -21.5292110843922 10.0
      vertex 28.1852492230863 -14.3412860784097 10.0
   endloop
endfacet
facet normal -6.32444808128739e-017 7.76472834882198e-017 1.0
   outer loop
      vertex 24.5558973660005 -12.4167534073993 10.0
      vertex 28.1852492230863 -14.3412860784097 10.0
      vertex 25.9088092033033 -8.78579386925319 10.0
   endloop
endfacet
facet normal -6.32444808128739e-017 7.76472834882198e-017 1.0
   outer loop
      vertex 25.9088092033033 -8.78579386925319 10.0
      vertex 28.1852492230863 -14.3412860784097 10.0
      vertex 27.2617210406058 -5.15483433110702 10.0
   endloop
endfacet
facet normal -6.32444808128739e-017 7.76472834882198e-017 1.0
   outer loop
      vertex 27.2617210406058 -5.15483433110702 10.0
      vertex 28.1852492230863 -14.3412860784097 10.0
      vertex 27.995823048354 2.55995955278223 10.0
   endloop
endfacet
facet normal -6.32444808128739e-017 7.76472834882198e-017 1.0
   outer loop
      vertex -31.5273825065048 17.3224696445969 10.0
      vertex -30.6038543240245 8.13601789729439 10.0
      vertex -26.4124617030653 24.5103946505795 9.99999999999999
   endloop
endfacet
facet normal -6.32444808128739e-017 7.76472834882198e-017 1.0
   outer loop
      vertex -30.6038543240245 8.13601789729439 10.0
      vertex -31.5273825065048 17.3224696445969 10.0
      vertex -31.3379563317725 0.421224013405024 10.0
   endloop
endfacet
facet normal -6.32444808128739e-017 7.76472834882198e-017 1.0
   outer loop
      vertex -26.4124617030653 24.5103946505795 9.99999999999999
      vertex -30.6038543240245 8.13601789729439 10.0
      vertex -27.898030649419 15.3979369735867 10.0
   endloop
endfacet
facet normal -6.32444808128739e-017 7.76472834882198e-017 1.0
   outer loop
      vertex -26.4124617030653 24.5103946505795 9.99999999999999
      vertex -27.898030649419 15.3979369735867 10.0
      vertex -23.4048827197954 21.7120934581215 10.0
   endloop
endfacet
facet normal -6.32444808128739e-017 7.76472834882198e-017 1.0
   outer loop
      vertex -26.4124617030653 24.5103946505795 9.99999999999999
      vertex -23.4048827197954 21.7120934581215 10.0
      vertex -19.6114557132829 30.1295581331658 9.99999999999999
   endloop
endfacet
facet normal -6.32444808128739e-017 7.76472834882198e-017 1.0
   outer loop
      vertex -19.6114557132829 30.1295581331658 9.99999999999999
      vertex -23.4048827197954 21.7120934581215 10.0
      vertex -17.4306111412795 26.6481880211148 9.99999999999999
   endloop
endfacet
facet normal -6.32444808128739e-017 7.76472834882198e-017 1.0
   outer loop
      vertex -19.6114557132829 30.1295581331658 9.99999999999999
      vertex -17.4306111412795 26.6481880211148 9.99999999999999
      vertex -11.5878418561675 33.7970233871242 9.99999999999999
   endloop
endfacet
facet normal -6.32444808128739e-017 7.76472834882198e-017 1.0
   outer loop
      vertex -11.5878418561675 33.7970233871242 9.99999999999999
      vertex -17.4306111412795 26.6481880211148 9.99999999999999
      vertex -10.3823526489966 29.8698339753805 9.99999999999999
   endloop
endfacet
facet normal -6.32444808128739e-017 7.76472834882198e-017 1.0
   outer loop
      vertex -11.5878418561675 33.7970233871242 9.99999999999999
      vertex -10.3823526489966 29.8698339753805 9.99999999999999
      vertex -2.88841615643277 35.2628587161707 9.99999999999999
   endloop
endfacet
facet normal -6.32444808128739e-017 7.76472834882198e-017 1.0
   outer loop
      vertex -2.88841615643277 35.2628587161707 9.99999999999999
      vertex -10.3823526489966 29.8698339753805 9.99999999999999
      vertex -2.74043441139789 31.1574814731569 9.99999999999999
   endloop
endfacet
facet normal -6.32444808128739e-017 7.76472834882198e-017 1.0
   outer loop
      vertex -2.88841615643277 35.2628587161707 9.99999999999999
      vertex -2.74043441139789 31.1574814731569 9.99999999999999
      vertex 5.8939699009653 34.4271698650378 9.99999999999999
   endloop
endfacet
facet normal -6.32444808128739e-017 7.76472834882198e-017 1.0
   outer loop
      vertex 5.8939699009653 34.4271698650378 9.99999999999999
      vertex -2.74043441139789 31.1574814731569 9.99999999999999
      vertex 4.97435947249138 30.4233794654088 9.99999999999999
   endloop
endfacet
facet normal -6.32444808128739e-017 7.76472834882198e-017 1.0
   outer loop
      vertex 5.8939699009653 34.4271698650378 9.99999999999999
      vertex 4.97435947249138 30.4233794654088 9.99999999999999
      vertex 12.2362785487837 27.7175557908035 9.99999999999999
   endloop
endfacet
facet normal -6.32444808128739e-017 7.76472834882198e-017 1.0
   outer loop
      vertex 5.8939699009653 34.4271698650378 9.99999999999999
      vertex 12.2362785487837 27.7175557908035 9.99999999999999
      vertex 14.160811219794 31.3469076478892 9.99999999999999
   endloop
endfacet
facet normal -6.32444808128739e-017 7.76472834882198e-017 1.0
   outer loop
      vertex 14.160811219794 31.3469076478892 9.99999999999999
      vertex 12.2362785487837 27.7175557908035 9.99999999999999
      vertex 18.5504350333186 23.2244078611797 9.99999999999999
   endloop
endfacet
facet normal -6.32444808128739e-017 7.76472834882198e-017 1.0
   outer loop
      vertex 14.160811219794 31.3469076478892 9.99999999999999
      vertex 18.5504350333186 23.2244078611797 9.99999999999999
      vertex 21.3487362257765 26.2319868444497 9.99999999999999
   endloop
endfacet
facet normal -6.32444808128739e-017 7.76472834882198e-017 1.0
   outer loop
      vertex 21.3487362257765 26.2319868444497 9.99999999999999
      vertex 18.5504350333186 23.2244078611797 9.99999999999999
      vertex 23.4865295963119 17.250136282664 10.0
   endloop
endfacet
facet normal -6.32444808128739e-017 7.76472834882198e-017 1.0
   outer loop
      vertex 21.3487362257765 26.2319868444497 9.99999999999999
      vertex 23.4865295963119 17.250136282664 10.0
      vertex 26.9678997083629 19.4309808546673 10.0
   endloop
endfacet
facet normal -6.32444808128739e-017 7.76472834882198e-017 1.0
   outer loop
      vertex 26.9678997083629 19.4309808546673 10.0
      vertex 23.4865295963119 17.250136282664 10.0
      vertex 26.7081755505776 10.201877790381 10.0
   endloop
endfacet
facet normal -6.32444808128739e-017 7.76472834882198e-017 1.0
   outer loop
      vertex 26.9678997083629 19.4309808546673 10.0
      vertex 26.7081755505776 10.201877790381 10.0
      vertex 27.995823048354 2.55995955278223 10.0
   endloop
endfacet
facet normal -6.32444808128739e-017 7.76472834882198e-017 1.0
   outer loop
      vertex 26.9678997083629 19.4309808546673 10.0
      vertex 27.995823048354 2.55995955278223 10.0
      vertex 30.6353649623213 11.407366997552 10.0
   endloop
endfacet
facet normal -6.32444808128739e-017 7.76472834882198e-017 1.0
   outer loop
      vertex 30.6353649623213 11.407366997552 10.0
      vertex 27.995823048354 2.55995955278223 10.0
      vertex 28.1852492230863 -14.3412860784097 10.0
   endloop
endfacet
facet normal -6.32444808128739e-017 7.76472834882198e-017 1.0
   outer loop
      vertex 30.6353649623213 11.407366997552 10.0
      vertex 28.1852492230863 -14.3412860784097 10.0
      vertex 29.7253803316605 -10.2078654189953 10.0
   endloop
endfacet
facet normal -6.32444808128739e-017 7.76472834882198e-017 1.0
   outer loop
      vertex 30.6353649623213 11.407366997552 10.0
      vertex 29.7253803316605 -10.2078654189953 10.0
      vertex 31.2655114402349 -6.07444475958096 10.0
   endloop
endfacet
facet normal -6.32444808128739e-017 7.76472834882198e-017 1.0
   outer loop
      vertex 30.6353649623213 11.407366997552 10.0
      vertex 31.2655114402349 -6.07444475958096 10.0
      vertex 32.1012002913677 2.70794129781706 10.0
   endloop
endfacet
facet normal 0.937065108114998 -0.349154669385114 8.63751078455742e-017
   outer loop
      vertex 29.7253803316605 -10.2078654189953 0.0
      vertex 28.1852492230863 -14.3412860784097 10.0
      vertex 28.1852492230863 -14.3412860784097 0.0
   endloop
endfacet
facet normal 0.937065108114998 -0.349154669385114 8.63751078455742e-017
   outer loop
      vertex 28.1852492230863 -14.3412860784097 10.0
      vertex 29.7253803316605 -10.2078654189953 0.0
      vertex 29.7253803316605 -10.2078654189953 10.0
   endloop
endfacet
facet normal 0.937065108114994 -0.349154669385122 8.63751078455746e-017
   outer loop
      vertex 31.2655114402349 -6.07444475958096 0.0
      vertex 29.7253803316605 -10.2078654189953 10.0
      vertex 29.7253803316605 -10.2078654189953 0.0
   endloop
endfacet
facet normal 0.937065108114994 -0.349154669385122 8.63751078455746e-017
   outer loop
      vertex 29.7253803316605 -10.2078654189953 10.0
      vertex 31.2655114402349 -6.07444475958096 0.0
      vertex 31.2655114402349 -6.07444475958096 10.0
   endloop
endfacet
facet normal 0.995503266965976 -0.0947272160472831 7.03153982652562e-017
   outer loop
      vertex 32.1012002913677 2.70794129781706 0.0
      vertex 31.2655114402349 -6.07444475958096 10.0
      vertex 31.2655114402349 -6.07444475958096 0.0
   endloop
endfacet
facet normal 0.995503266965976 -0.0947272160472831 7.03153982652562e-017
   outer loop
      vertex 31.2655114402349 -6.07444475958096 10.0
      vertex 32.1012002913677 2.70794129781706 0.0
      vertex 32.1012002913677 2.70794129781706 10.0
   endloop
endfacet
facet normal 0.986099523320155 0.166155740520042 4.94638104948508e-017
   outer loop
      vertex 30.6353649623213 11.407366997552 0.0
      vertex 32.1012002913677 2.70794129781706 10.0
      vertex 32.1012002913677 2.70794129781706 0.0
   endloop
endfacet
facet normal 0.986099523320155 0.166155740520042 4.94638104948508e-017
   outer loop
      vertex 32.1012002913677 2.70794129781706 10.0
      vertex 30.6353649623213 11.407366997552 0.0
      vertex 30.6353649623213 11.407366997552 10.0
   endloop
endfacet
facet normal 0.909494726766583 0.415715457956256 2.52413457820346e-017
   outer loop
      vertex 26.9678997083629 19.4309808546673 0.0
      vertex 30.6353649623213 11.407366997552 10.0
      vertex 30.6353649623213 11.407366997552 0.0
   endloop
endfacet
facet normal 0.909494726766583 0.415715457956256 2.52413457820346e-017
   outer loop
      vertex 30.6353649623213 11.407366997552 10.0
      vertex 26.9678997083629 19.4309808546673 0.0
      vertex 26.9678997083629 19.4309808546673 10.0
   endloop
endfacet
facet normal 0.770909367594961 0.636944853935046 -7.01274932533096e-019
   outer loop
      vertex 21.3487362257765 26.2319868444497 -5.63993296509579e-015
      vertex 26.9678997083629 19.4309808546673 10.0
      vertex 26.9678997083629 19.4309808546673 0.0
   endloop
endfacet
facet normal 0.770909367594961 0.636944853935046 -7.01274932533096e-019
   outer loop
      vertex 26.9678997083629 19.4309808546673 10.0
      vertex 21.3487362257765 26.2319868444497 -5.63993296509579e-015
      vertex 21.3487362257765 26.2319868444497 9.99999999999999
   endloop
endfacet
facet normal 0.579787809009717 0.814767510719292 -2.65961049193589e-017
   outer loop
      vertex 14.160811219794 31.3469076478892 9.99999999999999
      vertex 21.3487362257765 26.2319868444497 -5.63993296509579e-015
      vertex 14.160811219794 31.3469076478892 -5.63993296509579e-015
   endloop
endfacet
facet normal 0.579787809009717 0.814767510719292 -2.65961049193589e-017
   outer loop
      vertex 21.3487362257765 26.2319868444497 -5.63993296509579e-015
      vertex 14.160811219794 31.3469076478892 9.99999999999999
      vertex 21.3487362257765 26.2319868444497 9.99999999999999
   endloop
endfacet
facet normal 0.349154669385121 0.937065108114995 -5.06784543080718e-017
   outer loop
      vertex 5.8939699009653 34.4271698650378 9.99999999999999
      vertex 14.160811219794 31.3469076478892 -5.63993296509579e-015
      vertex 5.8939699009653 34.4271698650378 -5.63993296509579e-015
   endloop
endfacet
facet normal 0.349154669385121 0.937065108114995 -5.06784543080718e-017
   outer loop
      vertex 14.160811219794 31.3469076478892 -5.63993296509579e-015
      vertex 5.8939699009653 34.4271698650378 9.99999999999999
      vertex 14.160811219794 31.3469076478892 9.99999999999999
   endloop
endfacet
facet normal 0.094727216047285 0.995503266965976 -7.13071507857967e-017
   outer loop
      vertex -2.88841615643277 35.2628587161707 9.99999999999999
      vertex 5.8939699009653 34.4271698650378 -5.63993296509579e-015
      vertex -2.88841615643277 35.2628587161707 -5.63993296509579e-015
   endloop
endfacet
facet normal 0.094727216047285 0.995503266965976 -7.13071507857967e-017
   outer loop
      vertex 5.8939699009653 34.4271698650378 -5.63993296509579e-015
      vertex -2.88841615643277 35.2628587161707 9.99999999999999
      vertex 5.8939699009653 34.4271698650378 9.99999999999999
   endloop
endfacet
facet normal -0.166155740520055 0.986099523320153 -8.70763827781078e-017
   outer loop
      vertex -11.5878418561675 33.7970233871242 9.99999999999999
      vertex -2.88841615643277 35.2628587161707 -5.63993296509579e-015
      vertex -11.5878418561675 33.7970233871242 -5.63993296509579e-015
   endloop
endfacet
facet normal -0.166155740520055 0.986099523320153 -8.70763827781078e-017
   outer loop
      vertex -2.88841615643277 35.2628587161707 -5.63993296509579e-015
      vertex -11.5878418561675 33.7970233871242 9.99999999999999
      vertex -2.88841615643277 35.2628587161707 9.99999999999999
   endloop
endfacet
facet normal -0.415715457956247 0.909494726766587 -9.69115031846151e-017
   outer loop
      vertex -19.6114557132829 30.1295581331658 9.99999999999999
      vertex -11.5878418561675 33.7970233871242 -5.63993296509579e-015
      vertex -19.6114557132829 30.1295581331658 -5.63993296509579e-015
   endloop
endfacet
facet normal -0.415715457956247 0.909494726766587 -9.69115031846151e-017
   outer loop
      vertex -11.5878418561675 33.7970233871242 -5.63993296509579e-015
      vertex -19.6114557132829 30.1295581331658 9.99999999999999
      vertex -11.5878418561675 33.7970233871242 9.99999999999999
   endloop
endfacet
facet normal -0.636944853935048 0.770909367594959 -1.00142264802924e-016
   outer loop
      vertex -26.4124617030653 24.5103946505795 9.99999999999999
      vertex -19.6114557132829 30.1295581331658 -5.63993296509579e-015
      vertex -26.4124617030653 24.5103946505795 -5.63993296509579e-015
   endloop
endfacet
facet normal -0.636944853935048 0.770909367594959 -1.00142264802924e-016
   outer loop
      vertex -19.6114557132829 30.1295581331658 -5.63993296509579e-015
      vertex -26.4124617030653 24.5103946505795 9.99999999999999
      vertex -19.6114557132829 30.1295581331658 9.99999999999999
   endloop
endfacet
facet normal -0.814767510719293 0.579787809009716 -9.65484965678306e-017
   outer loop
      vertex -26.4124617030653 24.5103946505795 9.99999999999999
      vertex -31.5273825065048 17.3224696445969 0.0
      vertex -31.5273825065048 17.3224696445969 10.0
   endloop
endfacet
facet normal -0.814767510719293 0.579787809009716 -9.65484965678306e-017
   outer loop
      vertex -31.5273825065048 17.3224696445969 0.0
      vertex -26.4124617030653 24.5103946505795 9.99999999999999
      vertex -26.4124617030653 24.5103946505795 -5.63993296509579e-015
   endloop
endfacet
facet normal -0.937065108114998 0.349154669385113 -8.63751078455741e-017
   outer loop
      vertex -34.6076447236534 9.05562832576821 10.0
      vertex -31.5273825065048 17.3224696445969 0.0
      vertex -34.6076447236534 9.05562832576821 0.0
   endloop
endfacet
facet normal -0.937065108114998 0.349154669385113 -8.63751078455741e-017
   outer loop
      vertex -31.5273825065048 17.3224696445969 0.0
      vertex -34.6076447236534 9.05562832576821 10.0
      vertex -31.5273825065048 17.3224696445969 10.0
   endloop
endfacet
facet normal -0.995503266965976 0.0947272160472841 -7.03153982652562e-017
   outer loop
      vertex -35.4433335747862 0.27324226837017 10.0
      vertex -34.6076447236534 9.05562832576821 0.0
      vertex -35.4433335747862 0.27324226837017 0.0
   endloop
endfacet
facet normal -0.995503266965976 0.0947272160472841 -7.03153982652562e-017
   outer loop
      vertex -34.6076447236534 9.05562832576821 0.0
      vertex -35.4433335747862 0.27324226837017 10.0
      vertex -34.6076447236534 9.05562832576821 10.0
   endloop
endfacet
facet normal -0.986099523320157 -0.166155740520031 -4.94638104948518e-017
   outer loop
      vertex -33.9774982457399 -8.4261834313646 10.0
      vertex -35.4433335747862 0.27324226837017 0.0
      vertex -33.9774982457399 -8.4261834313646 0.0
   endloop
endfacet
facet normal -0.986099523320157 -0.166155740520031 -4.94638104948518e-017
   outer loop
      vertex -35.4433335747862 0.27324226837017 0.0
      vertex -33.9774982457399 -8.4261834313646 10.0
      vertex -35.4433335747862 0.27324226837017 10.0
   endloop
endfacet
facet normal -0.90949472676658 -0.415715457956262 -2.52413457820339e-017
   outer loop
      vertex -33.9774982457399 -8.4261834313646 10.0
      vertex -30.3100329917814 -16.44979728848 0.0
      vertex -30.3100329917814 -16.44979728848 10.0
   endloop
endfacet
facet normal -0.90949472676658 -0.415715457956262 -2.52413457820339e-017
   outer loop
      vertex -30.3100329917814 -16.44979728848 0.0
      vertex -33.9774982457399 -8.4261834313646 10.0
      vertex -33.9774982457399 -8.4261834313646 0.0
   endloop
endfacet
facet normal -0.770909367594961 -0.636944853935047 7.01274932533127e-019
   outer loop
      vertex -30.3100329917814 -16.44979728848 10.0
      vertex -24.6908695091951 -23.2508032782624 5.63993296509579e-015
      vertex -24.6908695091951 -23.2508032782624 10.0
   endloop
endfacet
facet normal -0.770909367594961 -0.636944853935047 7.01274932533127e-019
   outer loop
      vertex -24.6908695091951 -23.2508032782624 5.63993296509579e-015
      vertex -30.3100329917814 -16.44979728848 10.0
      vertex -30.3100329917814 -16.44979728848 0.0
   endloop
endfacet
facet normal -0.579787809009723 -0.814767510719288 2.65961049193582e-017
   outer loop
      vertex -20.0901316462194 -26.5246840974029 9.99999999999996
      vertex -24.6908695091951 -23.2508032782624 5.63993296509579e-015
      vertex -20.0901316462194 -26.5246840974029 -4.51194637207664e-014
   endloop
endfacet
facet normal -0.579787809009723 -0.814767510719288 2.65961049193582e-017
   outer loop
      vertex -24.6908695091951 -23.2508032782624 5.63993296509579e-015
      vertex -20.0901316462194 -26.5246840974029 9.99999999999996
      vertex -24.6908695091951 -23.2508032782624 10.0
   endloop
endfacet
facet normal -0.579787809009712 -0.814767510719296 2.65961049193595e-017
   outer loop
      vertex -17.5029445032126 -28.3657240817019 5.63993296509579e-015
      vertex -20.0901316462194 -26.5246840974029 9.99999999999996
      vertex -20.0901316462194 -26.5246840974029 -4.51194637207664e-014
   endloop
endfacet
facet normal -0.579787809009712 -0.814767510719296 2.65961049193595e-017
   outer loop
      vertex -20.0901316462194 -26.5246840974029 9.99999999999996
      vertex -17.5029445032126 -28.3657240817019 5.63993296509579e-015
      vertex -17.5029445032126 -28.3657240817019 10.0
   endloop
endfacet
facet normal -0.349154669385117 -0.937065108114996 5.06784543080721e-017
   outer loop
      vertex -9.23610318438389 -31.4459862988505 10.0
      vertex -17.5029445032126 -28.3657240817019 5.63993296509579e-015
      vertex -9.23610318438389 -31.4459862988505 5.63993296509579e-015
   endloop
endfacet
facet normal -0.349154669385117 -0.937065108114996 5.06784543080721e-017
   outer loop
      vertex -17.5029445032126 -28.3657240817019 5.63993296509579e-015
      vertex -9.23610318438389 -31.4459862988505 10.0
      vertex -17.5029445032126 -28.3657240817019 10.0
   endloop
endfacet
facet normal -0.0947272160472801 -0.995503266965976 7.1307150785797e-017
   outer loop
      vertex -0.453717126985771 -32.2816751499833 10.0
      vertex -9.23610318438389 -31.4459862988505 5.63993296509579e-015
      vertex -0.45371712698577 -32.2816751499833 5.63993296509579e-015
   endloop
endfacet
facet normal -0.0947272160472801 -0.995503266965976 7.1307150785797e-017
   outer loop
      vertex -9.23610318438389 -31.4459862988505 5.63993296509579e-015
      vertex -0.453717126985771 -32.2816751499833 10.0
      vertex -9.23610318438389 -31.4459862988505 10.0
   endloop
endfacet
facet normal 0.166155740520032 -0.986099523320156 8.70763827781067e-017
   outer loop
      vertex 8.24570857274901 -30.815839820937 10.0
      vertex -0.45371712698577 -32.2816751499833 5.63993296509579e-015
      vertex 8.24570857274901 -30.815839820937 5.63993296509579e-015
   endloop
endfacet
facet normal 0.166155740520032 -0.986099523320156 8.70763827781067e-017
   outer loop
      vertex -0.45371712698577 -32.2816751499833 5.63993296509579e-015
      vertex 8.24570857274901 -30.815839820937 10.0
      vertex -0.453717126985771 -32.2816751499833 10.0
   endloop
endfacet
facet normal 0.415715457956266 -0.909494726766578 9.69115031846156e-017
   outer loop
      vertex 16.2693224298643 -27.1483745669784 10.0
      vertex 8.24570857274901 -30.815839820937 5.63993296509579e-015
      vertex 16.2693224298643 -27.1483745669784 5.63993296509579e-015
   endloop
endfacet
facet normal 0.415715457956266 -0.909494726766578 9.69115031846156e-017
   outer loop
      vertex 8.24570857274901 -30.815839820937 5.63993296509579e-015
      vertex 16.2693224298643 -27.1483745669784 10.0
      vertex 8.24570857274901 -30.815839820937 10.0
   endloop
endfacet
facet normal 0.636944853935035 -0.770909367594971 1.00142264802924e-016
   outer loop
      vertex 23.0703284196468 -21.5292110843922 10.0
      vertex 16.2693224298643 -27.1483745669784 5.63993296509579e-015
      vertex 23.0703284196468 -21.5292110843922 5.63993296509579e-015
   endloop
endfacet
facet normal 0.636944853935035 -0.770909367594971 1.00142264802924e-016
   outer loop
      vertex 16.2693224298643 -27.1483745669784 5.63993296509579e-015
      vertex 23.0703284196468 -21.5292110843922 10.0
      vertex 16.2693224298643 -27.1483745669784 10.0
   endloop
endfacet
facet normal 0.814767510719297 -0.57978780900971 9.65484965678304e-017
   outer loop
      vertex 28.1852492230863 -14.3412860784097 0.0
      vertex 23.0703284196468 -21.5292110843922 10.0
      vertex 23.0703284196468 -21.5292110843922 5.63993296509579e-015
   endloop
endfacet
facet normal 0.814767510719297 -0.57978780900971 9.65484965678304e-017
   outer loop
      vertex 23.0703284196468 -21.5292110843922 10.0
      vertex 28.1852492230863 -14.3412860784097 0.0
      vertex 28.1852492230863 -14.3412860784097 10.0
   endloop
endfacet
facet normal -0.814767510719291 0.579787809009719 -2.21444715657885e-017
   outer loop
      vertex 24.5558973660005 -12.4167534073993 10.0
      vertex 20.0627494363769 -18.7309098919342 7.0
      vertex 20.0627494363769 -18.7309098919342 10.0
   endloop
endfacet
facet normal -0.814767510719291 0.579787809009719 -2.21444715657885e-017
   outer loop
      vertex 20.0627494363769 -18.7309098919342 7.0
      vertex 24.5558973660005 -12.4167534073993 10.0
      vertex 24.5558973660005 -12.4167534073993 7.0
   endloop
endfacet
facet normal -0.636944853935049 0.770909367594959 2.77298891754376e-017
   outer loop
      vertex 14.088477857861 -23.6670044549275 7.00000000000001
      vertex 20.0627494363769 -18.7309098919342 10.0
      vertex 20.0627494363769 -18.7309098919342 7.0
   endloop
endfacet
facet normal -0.636944853935049 0.770909367594959 2.77298891754376e-017
   outer loop
      vertex 20.0627494363769 -18.7309098919342 10.0
      vertex 14.088477857861 -23.6670044549275 7.00000000000001
      vertex 14.088477857861 -23.6670044549275 10.0
   endloop
endfacet
facet normal -0.415715457956255 0.909494726766583 2.20850323174899e-018
   outer loop
      vertex 7.04021936557812 -26.8886504091931 10.0
      vertex 14.088477857861 -23.6670044549275 7.00000000000001
      vertex 7.04021936557812 -26.8886504091931 7.00000000000001
   endloop
endfacet
facet normal -0.415715457956255 0.909494726766583 2.20850323174899e-018
   outer loop
      vertex 14.088477857861 -23.6670044549275 7.00000000000001
      vertex 7.04021936557812 -26.8886504091931 10.0
      vertex 14.088477857861 -23.6670044549275 10.0
   endloop
endfacet
facet normal -0.166155740520037 0.986099523320156 -2.67690538356321e-018
   outer loop
      vertex -0.601698872020646 -28.1762979069696 10.0
      vertex 7.04021936557812 -26.8886504091931 7.00000000000001
      vertex -0.601698872020646 -28.1762979069696 7.00000000000001
   endloop
endfacet
facet normal -0.166155740520037 0.986099523320156 -2.67690538356321e-018
   outer loop
      vertex 7.04021936557812 -26.8886504091931 7.00000000000001
      vertex -0.601698872020646 -28.1762979069696 10.0
      vertex 7.04021936557812 -26.8886504091931 10.0
   endloop
endfacet
facet normal 0.0947272160472864 0.995503266965976 2.67404772330097e-018
   outer loop
      vertex -8.31649275590989 -27.4421958992216 10.0
      vertex -0.601698872020646 -28.1762979069696 7.00000000000001
      vertex -8.31649275590989 -27.4421958992216 7.00000000000001
   endloop
endfacet
facet normal 0.0947272160472864 0.995503266965976 2.67404772330097e-018
   outer loop
      vertex -0.601698872020646 -28.1762979069696 7.00000000000001
      vertex -8.31649275590989 -27.4421958992216 10.0
      vertex -0.601698872020646 -28.1762979069696 10.0
   endloop
endfacet
facet normal 0.349154669385112 0.937065108114998 -5.56468998897616e-018
   outer loop
      vertex -15.5784118322022 -24.7363722246161 10.0
      vertex -8.31649275590989 -27.4421958992216 7.00000000000001
      vertex -15.5784118322022 -24.7363722246161 7.00000000000001
   endloop
endfacet
facet normal 0.349154669385112 0.937065108114998 -5.56468998897616e-018
   outer loop
      vertex -8.31649275590989 -27.4421958992216 7.00000000000001
      vertex -15.5784118322022 -24.7363722246161 10.0
      vertex -8.31649275590989 -27.4421958992216 10.0
   endloop
endfacet
facet normal 0.579787809009715 0.814767510719294 3.54445893756181e-018
   outer loop
      vertex -17.7287147144853 -23.206218677225 9.99999999999996
      vertex -15.5784118322022 -24.7363722246161 7.00000000000001
      vertex -17.7287147144853 -23.206218677225 6.99999999999995
   endloop
endfacet
facet normal 0.579787809009715 0.814767510719294 3.54445893756181e-018
   outer loop
      vertex -15.5784118322022 -24.7363722246161 7.00000000000001
      vertex -17.7287147144853 -23.206218677225 9.99999999999996
      vertex -15.5784118322022 -24.7363722246161 10.0
   endloop
endfacet
facet normal 0.579787809009714 0.814767510719294 3.71182068667856e-018
   outer loop
      vertex -21.8925683167371 -20.2432242949925 7.0
      vertex -17.7287147144853 -23.206218677225 9.99999999999996
      vertex -17.7287147144853 -23.206218677225 6.99999999999995
   endloop
endfacet
facet normal 0.579787809009714 0.814767510719294 3.71182068667856e-018
   outer loop
      vertex -17.7287147144853 -23.206218677225 9.99999999999996
      vertex -21.8925683167371 -20.2432242949925 7.0
      vertex -21.8925683167371 -20.2432242949925 10.0
   endloop
endfacet
facet normal 0.770909367594965 0.636944853935042 7.11691267897843e-019
   outer loop
      vertex -26.8286628797304 -14.2689527164766 7.0
      vertex -21.8925683167371 -20.2432242949925 10.0
      vertex -21.8925683167371 -20.2432242949925 7.0
   endloop
endfacet
facet normal 0.770909367594965 0.636944853935042 7.11691267897843e-019
   outer loop
      vertex -21.8925683167371 -20.2432242949925 10.0
      vertex -26.8286628797304 -14.2689527164766 7.0
      vertex -26.8286628797304 -14.2689527164766 10.0
   endloop
endfacet
facet normal 0.90949472676658 0.415715457956262 -2.45008939421667e-017
   outer loop
      vertex -30.050308833996 -7.22069422419373 7.0
      vertex -26.8286628797304 -14.2689527164766 10.0
      vertex -26.8286628797304 -14.2689527164766 7.0
   endloop
endfacet
facet normal 0.90949472676658 0.415715457956262 -2.45008939421667e-017
   outer loop
      vertex -26.8286628797304 -14.2689527164766 10.0
      vertex -30.050308833996 -7.22069422419373 7.0
      vertex -30.050308833996 -7.22069422419373 10.0
   endloop
endfacet
facet normal 0.986099523320156 0.166155740520036 -1.54330052246677e-017
   outer loop
      vertex -31.3379563317725 0.421224013405023 7.0
      vertex -30.050308833996 -7.22069422419373 10.0
      vertex -30.050308833996 -7.22069422419373 7.0
   endloop
endfacet
facet normal 0.986099523320156 0.166155740520036 -1.54330052246677e-017
   outer loop
      vertex -30.050308833996 -7.22069422419373 10.0
      vertex -31.3379563317725 0.421224013405023 7.0
      vertex -31.3379563317725 0.421224013405024 10.0
   endloop
endfacet
facet normal 0.995503266965976 -0.0947272160472835 8.71294838300237e-018
   outer loop
      vertex -30.6038543240245 8.13601789729439 7.0
      vertex -31.3379563317725 0.421224013405024 10.0
      vertex -31.3379563317725 0.421224013405023 7.0
   endloop
endfacet
facet normal 0.995503266965976 -0.0947272160472835 8.71294838300237e-018
   outer loop
      vertex -31.3379563317725 0.421224013405024 10.0
      vertex -30.6038543240245 8.13601789729439 7.0
      vertex -30.6038543240245 8.13601789729439 10.0
   endloop
endfacet
facet normal 0.937065108114995 -0.349154669385119 1.79147673499748e-017
   outer loop
      vertex -27.898030649419 15.3979369735867 7.0
      vertex -30.6038543240245 8.13601789729439 10.0
      vertex -30.6038543240245 8.13601789729439 7.0
   endloop
endfacet
facet normal 0.937065108114995 -0.349154669385119 1.79147673499748e-017
   outer loop
      vertex -30.6038543240245 8.13601789729439 10.0
      vertex -27.898030649419 15.3979369735867 7.0
      vertex -27.898030649419 15.3979369735867 10.0
   endloop
endfacet
facet normal 0.814767510719293 -0.579787809009716 6.16028692424213e-018
   outer loop
      vertex -23.4048827197954 21.7120934581215 7.0
      vertex -27.898030649419 15.3979369735867 10.0
      vertex -27.898030649419 15.3979369735867 7.0
   endloop
endfacet
facet normal 0.814767510719293 -0.579787809009716 6.16028692424213e-018
   outer loop
      vertex -27.898030649419 15.3979369735867 10.0
      vertex -23.4048827197954 21.7120934581215 7.0
      vertex -23.4048827197954 21.7120934581215 10.0
   endloop
endfacet
facet normal 0.636944853935039 -0.770909367594967 2.18721434883779e-018
   outer loop
      vertex -17.4306111412795 26.6481880211148 9.99999999999999
      vertex -23.4048827197954 21.7120934581215 7.0
      vertex -17.4306111412795 26.6481880211148 6.99999999999999
   endloop
endfacet
facet normal 0.636944853935039 -0.770909367594967 2.18721434883779e-018
   outer loop
      vertex -23.4048827197954 21.7120934581215 7.0
      vertex -17.4306111412795 26.6481880211148 9.99999999999999
      vertex -23.4048827197954 21.7120934581215 10.0
   endloop
endfacet
facet normal 0.415715457956264 -0.909494726766579 -2.00114483882159e-018
   outer loop
      vertex -10.3823526489966 29.8698339753805 9.99999999999999
      vertex -17.4306111412795 26.6481880211148 6.99999999999999
      vertex -10.3823526489966 29.8698339753805 6.99999999999999
   endloop
endfacet
facet normal 0.415715457956264 -0.909494726766579 -2.00114483882159e-018
   outer loop
      vertex -17.4306111412795 26.6481880211148 6.99999999999999
      vertex -10.3823526489966 29.8698339753805 9.99999999999999
      vertex -17.4306111412795 26.6481880211148 9.99999999999999
   endloop
endfacet
facet normal 0.166155740520026 -0.986099523320157 3.07508886517865e-018
   outer loop
      vertex -2.74043441139789 31.1574814731569 9.99999999999999
      vertex -10.3823526489966 29.8698339753805 6.99999999999999
      vertex -2.74043441139789 31.1574814731569 6.99999999999999
   endloop
endfacet
facet normal 0.166155740520026 -0.986099523320157 3.07508886517865e-018
   outer loop
      vertex -10.3823526489966 29.8698339753805 6.99999999999999
      vertex -2.74043441139789 31.1574814731569 9.99999999999999
      vertex -10.3823526489966 29.8698339753805 9.99999999999999
   endloop
endfacet
facet normal -0.0947272160472832 -0.995503266965976 -9.37402921973611e-018
   outer loop
      vertex 4.97435947249138 30.4233794654088 9.99999999999999
      vertex -2.74043441139789 31.1574814731569 6.99999999999999
      vertex 4.97435947249138 30.4233794654088 6.99999999999999
   endloop
endfacet
facet normal -0.0947272160472832 -0.995503266965976 -9.37402921973611e-018
   outer loop
      vertex -2.74043441139789 31.1574814731569 6.99999999999999
      vertex 4.97435947249138 30.4233794654088 9.99999999999999
      vertex -2.74043441139789 31.1574814731569 9.99999999999999
   endloop
endfacet
facet normal -0.349154669385104 -0.937065108115001 -1.23500773609979e-017
   outer loop
      vertex 12.2362785487837 27.7175557908035 9.99999999999999
      vertex 4.97435947249138 30.4233794654088 6.99999999999999
      vertex 12.2362785487837 27.7175557908035 6.99999999999999
   endloop
endfacet
facet normal -0.349154669385104 -0.937065108115001 -1.23500773609979e-017
   outer loop
      vertex 4.97435947249138 30.4233794654088 6.99999999999999
      vertex 12.2362785487837 27.7175557908035 9.99999999999999
      vertex 4.97435947249138 30.4233794654088 9.99999999999999
   endloop
endfacet
facet normal -0.579787809009726 -0.814767510719286 3.08014346212112e-018
   outer loop
      vertex 18.5504350333186 23.2244078611797 9.99999999999999
      vertex 12.2362785487837 27.7175557908035 6.99999999999999
      vertex 18.5504350333186 23.2244078611797 6.99999999999999
   endloop
endfacet
facet normal -0.579787809009726 -0.814767510719286 3.08014346212112e-018
   outer loop
      vertex 12.2362785487837 27.7175557908035 6.99999999999999
      vertex 18.5504350333186 23.2244078611797 9.99999999999999
      vertex 12.2362785487837 27.7175557908035 9.99999999999999
   endloop
endfacet
facet normal -0.770909367594955 -0.636944853935053 -7.63831813053326e-019
   outer loop
      vertex 18.5504350333186 23.2244078611797 9.99999999999999
      vertex 23.4865295963119 17.250136282664 7.0
      vertex 23.4865295963119 17.250136282664 10.0
   endloop
endfacet
facet normal -0.770909367594955 -0.636944853935053 -7.63831813053326e-019
   outer loop
      vertex 23.4865295963119 17.250136282664 7.0
      vertex 18.5504350333186 23.2244078611797 9.99999999999999
      vertex 18.5504350333186 23.2244078611797 6.99999999999999
   endloop
endfacet
facet normal -0.90949472676658 -0.415715457956262 2.02912458715961e-017
   outer loop
      vertex 26.7081755505776 10.201877790381 10.0
      vertex 23.4865295963119 17.250136282664 7.0
      vertex 26.7081755505776 10.201877790381 7.0
   endloop
endfacet
facet normal -0.90949472676658 -0.415715457956262 2.02912458715961e-017
   outer loop
      vertex 23.4865295963119 17.250136282664 7.0
      vertex 26.7081755505776 10.201877790381 10.0
      vertex 23.4865295963119 17.250136282664 10.0
   endloop
endfacet
facet normal -0.986099523320157 -0.16615574052003 2.20389273354141e-017
   outer loop
      vertex 27.995823048354 2.55995955278223 10.0
      vertex 26.7081755505776 10.201877790381 7.0
      vertex 27.995823048354 2.55995955278223 7.0
   endloop
endfacet
facet normal -0.986099523320157 -0.16615574052003 2.20389273354141e-017
   outer loop
      vertex 26.7081755505776 10.201877790381 7.0
      vertex 27.995823048354 2.55995955278223 10.0
      vertex 26.7081755505776 10.201877790381 10.0
   endloop
endfacet
facet normal -0.995503266965974 0.0947272160473008 -7.04538410298632e-018
   outer loop
      vertex 27.995823048354 2.55995955278223 10.0
      vertex 27.2617210406058 -5.15483433110702 7.0
      vertex 27.2617210406058 -5.15483433110702 10.0
   endloop
endfacet
facet normal -0.995503266965974 0.0947272160473008 -7.04538410298632e-018
   outer loop
      vertex 27.2617210406058 -5.15483433110702 7.0
      vertex 27.995823048354 2.55995955278223 10.0
      vertex 27.995823048354 2.55995955278223 7.0
   endloop
endfacet
facet normal -0.937065108115014 0.349154669385068 -3.36813889854023e-017
   outer loop
      vertex 25.9088092033033 -8.78579386925319 10.0
      vertex 27.2617210406058 -5.15483433110702 7.0
      vertex 25.9088092033033 -8.78579386925319 7.0
   endloop
endfacet
facet normal -0.937065108115014 0.349154669385068 -3.36813889854023e-017
   outer loop
      vertex 27.2617210406058 -5.15483433110702 7.0
      vertex 25.9088092033033 -8.78579386925319 10.0
      vertex 27.2617210406058 -5.15483433110702 10.0
   endloop
endfacet
facet normal -0.937065108114995 0.349154669385121 -4.14419258657723e-017
   outer loop
      vertex 24.5558973660005 -12.4167534073993 10.0
      vertex 25.9088092033033 -8.78579386925319 7.0
      vertex 24.5558973660005 -12.4167534073993 7.0
   endloop
endfacet
facet normal -0.937065108114995 0.349154669385121 -4.14419258657723e-017
   outer loop
      vertex 25.9088092033033 -8.78579386925319 7.0
      vertex 24.5558973660005 -12.4167534073993 10.0
      vertex 25.9088092033033 -8.78579386925319 10.0
   endloop
endfacet
facet normal -6.01104930844224e-017 5.7365663645281e-017 1.0
   outer loop
      vertex -0.601698872020646 -28.1762979069696 7.00000000000001
      vertex -6.07935345947172 22.5635741624665 7.00000000000001
      vertex -8.31649275590989 -27.4421958992216 7.00000000000001
   endloop
endfacet
facet normal -6.01104930844224e-017 5.7365663645281e-017 1.0
   outer loop
      vertex -6.07935345947172 22.5635741624665 7.00000000000001
      vertex -0.601698872020646 -28.1762979069696 7.00000000000001
      vertex -5.90898259091706 21.2694789369539 7.00000000000001
   endloop
endfacet
facet normal -6.01104930844224e-017 5.7365663645281e-017 1.0
   outer loop
      vertex -5.90898259091706 21.2694789369539 7.00000000000001
      vertex -0.601698872020646 -28.1762979069696 7.00000000000001
      vertex -5.40948047839391 20.0635741624665 7.00000000000001
   endloop
endfacet
facet normal -6.01104930844224e-017 5.7365663645281e-017 1.0
   outer loop
      vertex -5.40948047839391 20.0635741624665 7.00000000000001
      vertex -0.601698872020646 -28.1762979069696 7.00000000000001
      vertex -4.61488736540445 19.0280402565338 7.00000000000001
   endloop
endfacet
facet normal -6.01104930844224e-017 5.7365663645281e-017 1.0
   outer loop
      vertex -4.61488736540445 19.0280402565338 7.00000000000001
      vertex -0.601698872020646 -28.1762979069696 7.00000000000001
      vertex -3.57935345947171 18.2334471435443 7.00000000000001
   endloop
endfacet
facet normal -6.01104930844224e-017 5.7365663645281e-017 1.0
   outer loop
      vertex -3.57935345947171 18.2334471435443 7.00000000000001
      vertex -0.601698872020646 -28.1762979069696 7.00000000000001
      vertex -2.37344868498432 17.7339450310212 7.00000000000001
   endloop
endfacet
facet normal -6.01104930844224e-017 5.7365663645281e-017 1.0
   outer loop
      vertex -2.37344868498432 17.7339450310212 7.00000000000001
      vertex -0.601698872020646 -28.1762979069696 7.00000000000001
      vertex -1.07935345947172 17.5635741624665 7.00000000000001
   endloop
endfacet
facet normal -6.01104930844224e-017 5.7365663645281e-017 1.0
   outer loop
      vertex -1.07935345947172 17.5635741624665 7.00000000000001
      vertex -0.601698872020646 -28.1762979069696 7.00000000000001
      vertex 0.214741766040889 17.7339450310212 7.00000000000001
   endloop
endfacet
facet normal -6.01104930844224e-017 5.7365663645281e-017 1.0
   outer loop
      vertex 0.214741766040889 17.7339450310212 7.00000000000001
      vertex -0.601698872020646 -28.1762979069696 7.00000000000001
      vertex 7.04021936557812 -26.8886504091931 7.00000000000001
   endloop
endfacet
facet normal -6.01104930844224e-017 5.7365663645281e-017 1.0
   outer loop
      vertex 0.214741766040889 17.7339450310212 7.00000000000001
      vertex 7.04021936557812 -26.8886504091931 7.00000000000001
      vertex 1.42064654052829 18.2334471435443 7.00000000000001
   endloop
endfacet
facet normal -6.01104930844224e-017 5.7365663645281e-017 1.0
   outer loop
      vertex 1.42064654052829 18.2334471435443 7.00000000000001
      vertex 7.04021936557812 -26.8886504091931 7.00000000000001
      vertex 2.45618044646102 19.0280402565338 7.00000000000001
   endloop
endfacet
facet normal -6.01104930844224e-017 5.7365663645281e-017 1.0
   outer loop
      vertex 2.45618044646102 19.0280402565338 7.00000000000001
      vertex 7.04021936557812 -26.8886504091931 7.00000000000001
      vertex 3.25077355945048 20.0635741624665 7.00000000000001
   endloop
endfacet
facet normal -6.01104930844224e-017 5.7365663645281e-017 1.0
   outer loop
      vertex 3.25077355945048 20.0635741624665 7.00000000000001
      vertex 7.04021936557812 -26.8886504091931 7.00000000000001
      vertex 3.75027567197363 21.2694789369539 7.00000000000001
   endloop
endfacet
facet normal -6.01104930844224e-017 5.7365663645281e-017 1.0
   outer loop
      vertex 3.75027567197363 21.2694789369539 7.00000000000001
      vertex 7.04021936557812 -26.8886504091931 7.00000000000001
      vertex 3.92064654052828 22.5635741624665 7.00000000000001
   endloop
endfacet
facet normal -6.01104930844224e-017 5.7365663645281e-017 1.0
   outer loop
      vertex 3.92064654052828 22.5635741624665 7.00000000000001
      vertex 7.04021936557812 -26.8886504091931 7.00000000000001
      vertex 4.97435947249138 30.4233794654088 6.99999999999999
   endloop
endfacet
facet normal -6.01104930844224e-017 5.7365663645281e-017 1.0
   outer loop
      vertex 4.97435947249138 30.4233794654088 6.99999999999999
      vertex 7.04021936557812 -26.8886504091931 7.00000000000001
      vertex 12.2362785487837 27.7175557908035 6.99999999999999
   endloop
endfacet
facet normal -6.01104930844224e-017 5.7365663645281e-017 1.0
   outer loop
      vertex 12.2362785487837 27.7175557908035 6.99999999999999
      vertex 7.04021936557812 -26.8886504091931 7.00000000000001
      vertex 14.088477857861 -23.6670044549275 7.00000000000001
   endloop
endfacet
facet normal -6.01104930844224e-017 5.7365663645281e-017 1.0
   outer loop
      vertex 12.2362785487837 27.7175557908035 6.99999999999999
      vertex 14.088477857861 -23.6670044549275 7.00000000000001
      vertex 18.5504350333186 23.2244078611797 6.99999999999999
   endloop
endfacet
facet normal -6.01104930844224e-017 5.7365663645281e-017 1.0
   outer loop
      vertex 18.5504350333186 23.2244078611797 6.99999999999999
      vertex 14.088477857861 -23.6670044549275 7.00000000000001
      vertex 20.0627494363769 -18.7309098919342 7.0
   endloop
endfacet
facet normal -6.01104930844224e-017 5.7365663645281e-017 1.0
   outer loop
      vertex 18.5504350333186 23.2244078611797 6.99999999999999
      vertex 20.0627494363769 -18.7309098919342 7.0
      vertex 23.4865295963119 17.250136282664 7.0
   endloop
endfacet
facet normal -6.01104930844224e-017 5.7365663645281e-017 1.0
   outer loop
      vertex 23.4865295963119 17.250136282664 7.0
      vertex 20.0627494363769 -18.7309098919342 7.0
      vertex 24.5558973660005 -12.4167534073993 7.0
   endloop
endfacet
facet normal -6.01104930844224e-017 5.7365663645281e-017 1.0
   outer loop
      vertex 23.4865295963119 17.250136282664 7.0
      vertex 24.5558973660005 -12.4167534073993 7.0
      vertex 26.7081755505776 10.201877790381 7.0
   endloop
endfacet
facet normal -6.01104930844224e-017 5.7365663645281e-017 1.0
   outer loop
      vertex 26.7081755505776 10.201877790381 7.0
      vertex 24.5558973660005 -12.4167534073993 7.0
      vertex 25.9088092033033 -8.78579386925319 7.0
   endloop
endfacet
facet normal -6.01104930844224e-017 5.7365663645281e-017 1.0
   outer loop
      vertex 26.7081755505776 10.201877790381 7.0
      vertex 25.9088092033033 -8.78579386925319 7.0
      vertex 27.2617210406058 -5.15483433110702 7.0
   endloop
endfacet
facet normal -6.01104930844224e-017 5.7365663645281e-017 1.0
   outer loop
      vertex 26.7081755505776 10.201877790381 7.0
      vertex 27.2617210406058 -5.15483433110702 7.0
      vertex 27.995823048354 2.55995955278223 7.0
   endloop
endfacet
facet normal -6.01104930844224e-017 5.7365663645281e-017 1.0
   outer loop
      vertex -30.050308833996 -7.22069422419373 7.0
      vertex -30.6038543240245 8.13601789729439 7.0
      vertex -31.3379563317725 0.421224013405023 7.0
   endloop
endfacet
facet normal -6.01104930844224e-017 5.7365663645281e-017 1.0
   outer loop
      vertex -30.6038543240245 8.13601789729439 7.0
      vertex -30.050308833996 -7.22069422419373 7.0
      vertex -27.898030649419 15.3979369735867 7.0
   endloop
endfacet
facet normal -6.01104930844224e-017 5.7365663645281e-017 1.0
   outer loop
      vertex -27.898030649419 15.3979369735867 7.0
      vertex -30.050308833996 -7.22069422419373 7.0
      vertex -26.8286628797304 -14.2689527164766 7.0
   endloop
endfacet
facet normal -6.01104930844224e-017 5.7365663645281e-017 1.0
   outer loop
      vertex -27.898030649419 15.3979369735867 7.0
      vertex -26.8286628797304 -14.2689527164766 7.0
      vertex -23.4048827197954 21.7120934581215 7.0
   endloop
endfacet
facet normal -6.01104930844224e-017 5.7365663645281e-017 1.0
   outer loop
      vertex -23.4048827197954 21.7120934581215 7.0
      vertex -26.8286628797304 -14.2689527164766 7.0
      vertex -21.8925683167371 -20.2432242949925 7.0
   endloop
endfacet
facet normal -6.01104930844224e-017 5.7365663645281e-017 1.0
   outer loop
      vertex -23.4048827197954 21.7120934581215 7.0
      vertex -21.8925683167371 -20.2432242949925 7.0
      vertex -17.4306111412795 26.6481880211148 6.99999999999999
   endloop
endfacet
facet normal -6.01104930844224e-017 5.7365663645281e-017 1.0
   outer loop
      vertex -17.4306111412795 26.6481880211148 6.99999999999999
      vertex -21.8925683167371 -20.2432242949925 7.0
      vertex -17.7287147144853 -23.206218677225 6.99999999999995
   endloop
endfacet
facet normal -6.01104930844224e-017 5.7365663645281e-017 1.0
   outer loop
      vertex -17.4306111412795 26.6481880211148 6.99999999999999
      vertex -17.7287147144853 -23.206218677225 6.99999999999995
      vertex -15.5784118322022 -24.7363722246161 7.00000000000001
   endloop
endfacet
facet normal -6.01104930844224e-017 5.7365663645281e-017 1.0
   outer loop
      vertex -17.4306111412795 26.6481880211148 6.99999999999999
      vertex -15.5784118322022 -24.7363722246161 7.00000000000001
      vertex -10.3823526489966 29.8698339753805 6.99999999999999
   endloop
endfacet
facet normal -6.01104930844224e-017 5.7365663645281e-017 1.0
   outer loop
      vertex -10.3823526489966 29.8698339753805 6.99999999999999
      vertex -15.5784118322022 -24.7363722246161 7.00000000000001
      vertex -8.31649275590989 -27.4421958992216 7.00000000000001
   endloop
endfacet
facet normal -6.01104930844224e-017 5.7365663645281e-017 1.0
   outer loop
      vertex -10.3823526489966 29.8698339753805 6.99999999999999
      vertex -8.31649275590989 -27.4421958992216 7.00000000000001
      vertex -6.07935345947172 22.5635741624665 7.00000000000001
   endloop
endfacet
facet normal -6.01104930844224e-017 5.7365663645281e-017 1.0
   outer loop
      vertex -10.3823526489966 29.8698339753805 6.99999999999999
      vertex -6.07935345947172 22.5635741624665 7.00000000000001
      vertex -5.90898259091706 23.8576693879791 7.00000000000001
   endloop
endfacet
facet normal -6.01104930844224e-017 5.7365663645281e-017 1.0
   outer loop
      vertex -10.3823526489966 29.8698339753805 6.99999999999999
      vertex -5.90898259091706 23.8576693879791 7.00000000000001
      vertex -5.40948047839391 25.0635741624665 7.00000000000001
   endloop
endfacet
facet normal -6.01104930844224e-017 5.7365663645281e-017 1.0
   outer loop
      vertex -10.3823526489966 29.8698339753805 6.99999999999999
      vertex -5.40948047839391 25.0635741624665 7.00000000000001
      vertex -2.74043441139789 31.1574814731569 6.99999999999999
   endloop
endfacet
facet normal -6.01104930844224e-017 5.7365663645281e-017 1.0
   outer loop
      vertex -2.74043441139789 31.1574814731569 6.99999999999999
      vertex -5.40948047839391 25.0635741624665 7.00000000000001
      vertex -4.61488736540445 26.0991080683993 7.00000000000001
   endloop
endfacet
facet normal -6.01104930844224e-017 5.7365663645281e-017 1.0
   outer loop
      vertex -2.74043441139789 31.1574814731569 6.99999999999999
      vertex -4.61488736540445 26.0991080683993 7.00000000000001
      vertex -3.57935345947172 26.8937011813887 7.00000000000001
   endloop
endfacet
facet normal -6.01104930844224e-017 5.7365663645281e-017 1.0
   outer loop
      vertex -2.74043441139789 31.1574814731569 6.99999999999999
      vertex -3.57935345947172 26.8937011813887 7.00000000000001
      vertex -2.37344868498432 27.3932032939119 7.00000000000001
   endloop
endfacet
facet normal -6.01104930844224e-017 5.7365663645281e-017 1.0
   outer loop
      vertex -2.74043441139789 31.1574814731569 6.99999999999999
      vertex -2.37344868498432 27.3932032939119 7.00000000000001
      vertex 4.97435947249138 30.4233794654088 6.99999999999999
   endloop
endfacet
facet normal -6.01104930844224e-017 5.7365663645281e-017 1.0
   outer loop
      vertex 4.97435947249138 30.4233794654088 6.99999999999999
      vertex -2.37344868498432 27.3932032939119 7.00000000000001
      vertex -1.07935345947172 27.5635741624665 7.00000000000001
   endloop
endfacet
facet normal -6.01104930844224e-017 5.7365663645281e-017 1.0
   outer loop
      vertex 4.97435947249138 30.4233794654088 6.99999999999999
      vertex -1.07935345947172 27.5635741624665 7.00000000000001
      vertex 0.214741766040886 27.3932032939119 7.00000000000001
   endloop
endfacet
facet normal -6.01104930844224e-017 5.7365663645281e-017 1.0
   outer loop
      vertex 4.97435947249138 30.4233794654088 6.99999999999999
      vertex 0.214741766040886 27.3932032939119 7.00000000000001
      vertex 1.42064654052828 26.8937011813887 7.00000000000001
   endloop
endfacet
facet normal -6.01104930844224e-017 5.7365663645281e-017 1.0
   outer loop
      vertex 4.97435947249138 30.4233794654088 6.99999999999999
      vertex 1.42064654052828 26.8937011813887 7.00000000000001
      vertex 2.45618044646102 26.0991080683993 7.00000000000001
   endloop
endfacet
facet normal -6.01104930844224e-017 5.7365663645281e-017 1.0
   outer loop
      vertex 4.97435947249138 30.4233794654088 6.99999999999999
      vertex 2.45618044646102 26.0991080683993 7.00000000000001
      vertex 3.25077355945048 25.0635741624665 7.00000000000001
   endloop
endfacet
facet normal -6.01104930844224e-017 5.7365663645281e-017 1.0
   outer loop
      vertex 4.97435947249138 30.4233794654088 6.99999999999999
      vertex 3.25077355945048 25.0635741624665 7.00000000000001
      vertex 3.75027567197363 23.8576693879792 7.00000000000001
   endloop
endfacet
facet normal -6.01104930844224e-017 5.7365663645281e-017 1.0
   outer loop
      vertex 4.97435947249138 30.4233794654088 6.99999999999999
      vertex 3.75027567197363 23.8576693879792 7.00000000000001
      vertex 3.92064654052828 22.5635741624665 7.00000000000001
   endloop
endfacet
facet normal -0.793353340291235 0.608761429008721 -0.0
   outer loop
      vertex 3.25077355945048 20.0635741624665 7.00000000000001
      vertex 2.45618044646102 19.0280402565338 0.0
      vertex 2.45618044646102 19.0280402565338 7.00000000000001
   endloop
endfacet
facet normal -0.793353340291235 0.608761429008721 -0.0
   outer loop
      vertex 2.45618044646102 19.0280402565338 0.0
      vertex 3.25077355945048 20.0635741624665 7.00000000000001
      vertex 3.25077355945048 20.0635741624665 0.0
   endloop
endfacet
facet normal -0.923879532511287 0.382683432365089 -0.0
   outer loop
      vertex 3.75027567197363 21.2694789369539 7.00000000000001
      vertex 3.25077355945048 20.0635741624665 0.0
      vertex 3.25077355945048 20.0635741624665 7.00000000000001
   endloop
endfacet
facet normal -0.923879532511287 0.382683432365089 -0.0
   outer loop
      vertex 3.25077355945048 20.0635741624665 0.0
      vertex 3.75027567197363 21.2694789369539 7.00000000000001
      vertex 3.75027567197363 21.2694789369539 0.0
   endloop
endfacet
facet normal -0.99144486137381 0.130526192220052 -0.0
   outer loop
      vertex 3.92064654052828 22.5635741624665 7.00000000000001
      vertex 3.75027567197363 21.2694789369539 0.0
      vertex 3.75027567197363 21.2694789369539 7.00000000000001
   endloop
endfacet
facet normal -0.99144486137381 0.130526192220052 -0.0
   outer loop
      vertex 3.75027567197363 21.2694789369539 0.0
      vertex 3.92064654052828 22.5635741624665 7.00000000000001
      vertex 3.92064654052828 22.5635741624665 0.0
   endloop
endfacet
facet normal -0.99144486137381 -0.130526192220052 -0.0
   outer loop
      vertex 3.75027567197363 23.8576693879792 7.00000000000001
      vertex 3.92064654052828 22.5635741624665 0.0
      vertex 3.92064654052828 22.5635741624665 7.00000000000001
   endloop
endfacet
facet normal -0.99144486137381 -0.130526192220052 -0.0
   outer loop
      vertex 3.92064654052828 22.5635741624665 0.0
      vertex 3.75027567197363 23.8576693879792 7.00000000000001
      vertex 3.75027567197363 23.8576693879792 0.0
   endloop
endfacet
facet normal -0.923879532511286 -0.382683432365091 -0.0
   outer loop
      vertex 3.25077355945048 25.0635741624665 7.00000000000001
      vertex 3.75027567197363 23.8576693879792 0.0
      vertex 3.75027567197363 23.8576693879792 7.00000000000001
   endloop
endfacet
facet normal -0.923879532511286 -0.382683432365091 -0.0
   outer loop
      vertex 3.75027567197363 23.8576693879792 0.0
      vertex 3.25077355945048 25.0635741624665 7.00000000000001
      vertex 3.25077355945048 25.0635741624665 0.0
   endloop
endfacet
facet normal -0.793353340291236 -0.60876142900872 -0.0
   outer loop
      vertex 2.45618044646102 26.0991080683993 7.00000000000001
      vertex 3.25077355945048 25.0635741624665 0.0
      vertex 3.25077355945048 25.0635741624665 7.00000000000001
   endloop
endfacet
facet normal -0.793353340291236 -0.60876142900872 -0.0
   outer loop
      vertex 3.25077355945048 25.0635741624665 0.0
      vertex 2.45618044646102 26.0991080683993 7.00000000000001
      vertex 2.45618044646102 26.0991080683993 0.0
   endloop
endfacet
facet normal -0.60876142900872 -0.793353340291236 -0.0
   outer loop
      vertex 2.45618044646102 26.0991080683993 7.00000000000001
      vertex 1.42064654052828 26.8937011813887 0.0
      vertex 2.45618044646102 26.0991080683993 0.0
   endloop
endfacet
facet normal -0.60876142900872 -0.793353340291236 -0.0
   outer loop
      vertex 1.42064654052828 26.8937011813887 0.0
      vertex 2.45618044646102 26.0991080683993 7.00000000000001
      vertex 1.42064654052828 26.8937011813887 7.00000000000001
   endloop
endfacet
facet normal -0.38268343236509 -0.923879532511287 -0.0
   outer loop
      vertex 1.42064654052828 26.8937011813887 7.00000000000001
      vertex 0.214741766040886 27.3932032939119 0.0
      vertex 1.42064654052828 26.8937011813887 0.0
   endloop
endfacet
facet normal -0.38268343236509 -0.923879532511287 -0.0
   outer loop
      vertex 0.214741766040886 27.3932032939119 0.0
      vertex 1.42064654052828 26.8937011813887 7.00000000000001
      vertex 0.214741766040886 27.3932032939119 7.00000000000001
   endloop
endfacet
facet normal -0.130526192220052 -0.99144486137381 -0.0
   outer loop
      vertex 0.214741766040886 27.3932032939119 7.00000000000001
      vertex -1.07935345947172 27.5635741624665 0.0
      vertex 0.214741766040886 27.3932032939119 0.0
   endloop
endfacet
facet normal -0.130526192220052 -0.99144486137381 -0.0
   outer loop
      vertex -1.07935345947172 27.5635741624665 0.0
      vertex 0.214741766040886 27.3932032939119 7.00000000000001
      vertex -1.07935345947172 27.5635741624665 7.00000000000001
   endloop
endfacet
facet normal 0.130526192220056 -0.99144486137381 -0.0
   outer loop
      vertex -1.07935345947172 27.5635741624665 7.00000000000001
      vertex -2.37344868498432 27.3932032939119 0.0
      vertex -1.07935345947172 27.5635741624665 0.0
   endloop
endfacet
facet normal 0.130526192220056 -0.99144486137381 -0.0
   outer loop
      vertex -2.37344868498432 27.3932032939119 0.0
      vertex -1.07935345947172 27.5635741624665 7.00000000000001
      vertex -2.37344868498432 27.3932032939119 7.00000000000001
   endloop
endfacet
facet normal 0.38268343236509 -0.923879532511287 -0.0
   outer loop
      vertex -2.37344868498432 27.3932032939119 7.00000000000001
      vertex -3.57935345947172 26.8937011813887 0.0
      vertex -2.37344868498432 27.3932032939119 0.0
   endloop
endfacet
facet normal 0.38268343236509 -0.923879532511287 -0.0
   outer loop
      vertex -3.57935345947172 26.8937011813887 0.0
      vertex -2.37344868498432 27.3932032939119 7.00000000000001
      vertex -3.57935345947172 26.8937011813887 7.00000000000001
   endloop
endfacet
facet normal 0.60876142900872 -0.793353340291235 -0.0
   outer loop
      vertex -3.57935345947172 26.8937011813887 7.00000000000001
      vertex -4.61488736540445 26.0991080683993 0.0
      vertex -3.57935345947172 26.8937011813887 0.0
   endloop
endfacet
facet normal 0.60876142900872 -0.793353340291235 -0.0
   outer loop
      vertex -4.61488736540445 26.0991080683993 0.0
      vertex -3.57935345947172 26.8937011813887 7.00000000000001
      vertex -4.61488736540445 26.0991080683993 7.00000000000001
   endloop
endfacet
facet normal 0.793353340291235 -0.608761429008721 -0.0
   outer loop
      vertex -4.61488736540445 26.0991080683993 0.0
      vertex -5.40948047839391 25.0635741624665 7.00000000000001
      vertex -5.40948047839391 25.0635741624665 0.0
   endloop
endfacet
facet normal 0.793353340291235 -0.608761429008721 -0.0
   outer loop
      vertex -5.40948047839391 25.0635741624665 7.00000000000001
      vertex -4.61488736540445 26.0991080683993 0.0
      vertex -4.61488736540445 26.0991080683993 7.00000000000001
   endloop
endfacet
facet normal 0.923879532511287 -0.38268343236509 -0.0
   outer loop
      vertex -5.40948047839391 25.0635741624665 0.0
      vertex -5.90898259091706 23.8576693879791 7.00000000000001
      vertex -5.90898259091706 23.8576693879791 0.0
   endloop
endfacet
facet normal 0.923879532511287 -0.38268343236509 -0.0
   outer loop
      vertex -5.90898259091706 23.8576693879791 7.00000000000001
      vertex -5.40948047839391 25.0635741624665 0.0
      vertex -5.40948047839391 25.0635741624665 7.00000000000001
   endloop
endfacet
facet normal 0.991444861373811 -0.130526192220051 -0.0
   outer loop
      vertex -5.90898259091706 23.8576693879791 0.0
      vertex -6.07935345947172 22.5635741624665 7.00000000000001
      vertex -6.07935345947172 22.5635741624665 0.0
   endloop
endfacet
facet normal 0.991444861373811 -0.130526192220051 -0.0
   outer loop
      vertex -6.07935345947172 22.5635741624665 7.00000000000001
      vertex -5.90898259091706 23.8576693879791 0.0
      vertex -5.90898259091706 23.8576693879791 7.00000000000001
   endloop
endfacet
facet normal 0.99144486137381 0.130526192220052 0.0
   outer loop
      vertex -6.07935345947172 22.5635741624665 0.0
      vertex -5.90898259091706 21.2694789369539 7.00000000000001
      vertex -5.90898259091706 21.2694789369539 0.0
   endloop
endfacet
facet normal 0.99144486137381 0.130526192220052 0.0
   outer loop
      vertex -5.90898259091706 21.2694789369539 7.00000000000001
      vertex -6.07935345947172 22.5635741624665 0.0
      vertex -6.07935345947172 22.5635741624665 7.00000000000001
   endloop
endfacet
facet normal 0.923879532511287 0.38268343236509 0.0
   outer loop
      vertex -5.90898259091706 21.2694789369539 0.0
      vertex -5.40948047839391 20.0635741624665 7.00000000000001
      vertex -5.40948047839391 20.0635741624665 0.0
   endloop
endfacet
facet normal 0.923879532511287 0.38268343236509 0.0
   outer loop
      vertex -5.40948047839391 20.0635741624665 7.00000000000001
      vertex -5.90898259091706 21.2694789369539 0.0
      vertex -5.90898259091706 21.2694789369539 7.00000000000001
   endloop
endfacet
facet normal 0.793353340291235 0.608761429008721 0.0
   outer loop
      vertex -5.40948047839391 20.0635741624665 0.0
      vertex -4.61488736540445 19.0280402565338 7.00000000000001
      vertex -4.61488736540445 19.0280402565338 0.0
   endloop
endfacet
facet normal 0.793353340291235 0.608761429008721 0.0
   outer loop
      vertex -4.61488736540445 19.0280402565338 7.00000000000001
      vertex -5.40948047839391 20.0635741624665 0.0
      vertex -5.40948047839391 20.0635741624665 7.00000000000001
   endloop
endfacet
facet normal 0.60876142900872 0.793353340291236 0.0
   outer loop
      vertex -4.61488736540445 19.0280402565338 7.00000000000001
      vertex -3.57935345947171 18.2334471435443 0.0
      vertex -4.61488736540445 19.0280402565338 0.0
   endloop
endfacet
facet normal 0.60876142900872 0.793353340291236 0.0
   outer loop
      vertex -3.57935345947171 18.2334471435443 0.0
      vertex -4.61488736540445 19.0280402565338 7.00000000000001
      vertex -3.57935345947171 18.2334471435443 7.00000000000001
   endloop
endfacet
facet normal 0.38268343236509 0.923879532511287 0.0
   outer loop
      vertex -3.57935345947171 18.2334471435443 7.00000000000001
      vertex -2.37344868498432 17.7339450310212 0.0
      vertex -3.57935345947171 18.2334471435443 0.0
   endloop
endfacet
facet normal 0.38268343236509 0.923879532511287 0.0
   outer loop
      vertex -2.37344868498432 17.7339450310212 0.0
      vertex -3.57935345947171 18.2334471435443 7.00000000000001
      vertex -2.37344868498432 17.7339450310212 7.00000000000001
   endloop
endfacet
facet normal 0.130526192220052 0.99144486137381 0.0
   outer loop
      vertex -2.37344868498432 17.7339450310212 7.00000000000001
      vertex -1.07935345947172 17.5635741624665 0.0
      vertex -2.37344868498432 17.7339450310212 0.0
   endloop
endfacet
facet normal 0.130526192220052 0.99144486137381 0.0
   outer loop
      vertex -1.07935345947172 17.5635741624665 0.0
      vertex -2.37344868498432 17.7339450310212 7.00000000000001
      vertex -1.07935345947172 17.5635741624665 7.00000000000001
   endloop
endfacet
facet normal -0.130526192220052 0.99144486137381 -0.0
   outer loop
      vertex -1.07935345947172 17.5635741624665 7.00000000000001
      vertex 0.214741766040889 17.7339450310212 0.0
      vertex -1.07935345947172 17.5635741624665 0.0
   endloop
endfacet
facet normal -0.130526192220052 0.99144486137381 -0.0
   outer loop
      vertex 0.214741766040889 17.7339450310212 0.0
      vertex -1.07935345947172 17.5635741624665 7.00000000000001
      vertex 0.214741766040889 17.7339450310212 7.00000000000001
   endloop
endfacet
facet normal -0.382683432365089 0.923879532511287 -0.0
   outer loop
      vertex 0.214741766040889 17.7339450310212 7.00000000000001
      vertex 1.42064654052829 18.2334471435443 0.0
      vertex 0.214741766040889 17.7339450310212 0.0
   endloop
endfacet
facet normal -0.382683432365089 0.923879532511287 -0.0
   outer loop
      vertex 1.42064654052829 18.2334471435443 0.0
      vertex 0.214741766040889 17.7339450310212 7.00000000000001
      vertex 1.42064654052829 18.2334471435443 7.00000000000001
   endloop
endfacet
facet normal -0.60876142900872 0.793353340291235 -0.0
   outer loop
      vertex 1.42064654052829 18.2334471435443 7.00000000000001
      vertex 2.45618044646102 19.0280402565338 0.0
      vertex 1.42064654052829 18.2334471435443 0.0
   endloop
endfacet
facet normal -0.60876142900872 0.793353340291235 -0.0
   outer loop
      vertex 2.45618044646102 19.0280402565338 0.0
      vertex 1.42064654052829 18.2334471435443 7.00000000000001
      vertex 2.45618044646102 19.0280402565338 7.00000000000001
   endloop
endfacet
endsolid Scott-Dog-Blue
