solid Default
  facet normal 7.449265e-01 6.671465e-01 0.000000e+00
    outer loop
      vertex -2.458600e+01 -1.926000e+00 0.000000e+00
      vertex -2.336800e+01 -3.286000e+00 1.100200e+01
      vertex -2.336800e+01 -3.286000e+00 0.000000e+00
    endloop
  endfacet
  facet normal 7.449265e-01 6.671465e-01 0.000000e+00
    outer loop
      vertex -2.336800e+01 -3.286000e+00 1.100200e+01
      vertex -2.458600e+01 -1.926000e+00 0.000000e+00
      vertex -2.458600e+01 -1.926000e+00 1.100200e+01
    endloop
  endfacet
  facet normal -6.947504e-01 -7.192509e-01 -0.000000e+00
    outer loop
      vertex -2.671400e+01 -4.866000e+00 1.100200e+01
      vertex -2.835800e+01 -3.278000e+00 0.000000e+00
      vertex -2.671400e+01 -4.866000e+00 0.000000e+00
    endloop
  endfacet
  facet normal -6.947504e-01 -7.192509e-01 0.000000e+00
    outer loop
      vertex -2.835800e+01 -3.278000e+00 0.000000e+00
      vertex -2.671400e+01 -4.866000e+00 1.100200e+01
      vertex -2.835800e+01 -3.278000e+00 1.100200e+01
    endloop
  endfacet
  facet normal -7.076603e-01 -7.065528e-01 0.000000e+00
    outer loop
      vertex -1.656400e+01 4.500000e-01 1.100200e+01
      vertex -1.528800e+01 -8.280001e-01 0.000000e+00
      vertex -1.528800e+01 -8.280001e-01 1.100200e+01
    endloop
  endfacet
  facet normal -7.076603e-01 -7.065528e-01 0.000000e+00
    outer loop
      vertex -1.528800e+01 -8.280001e-01 0.000000e+00
      vertex -1.656400e+01 4.500000e-01 1.100200e+01
      vertex -1.656400e+01 4.500000e-01 0.000000e+00
    endloop
  endfacet
  facet normal 7.382187e-01 6.745614e-01 0.000000e+00
    outer loop
      vertex -1.466200e+01 -1.838000e+00 0.000000e+00
      vertex -1.334800e+01 -3.276000e+00 1.100200e+01
      vertex -1.334800e+01 -3.276000e+00 0.000000e+00
    endloop
  endfacet
  facet normal 7.382187e-01 6.745614e-01 0.000000e+00
    outer loop
      vertex -1.334800e+01 -3.276000e+00 1.100200e+01
      vertex -1.466200e+01 -1.838000e+00 0.000000e+00
      vertex -1.466200e+01 -1.838000e+00 1.100200e+01
    endloop
  endfacet
  facet normal -7.022059e-01 -7.119740e-01 -0.000000e+00
    outer loop
      vertex -2.521200e+01 -8.440000e-01 1.100200e+01
      vertex -2.652400e+01 4.500000e-01 0.000000e+00
      vertex -2.521200e+01 -8.440000e-01 0.000000e+00
    endloop
  endfacet
  facet normal -7.022059e-01 -7.119740e-01 0.000000e+00
    outer loop
      vertex -2.652400e+01 4.500000e-01 0.000000e+00
      vertex -2.521200e+01 -8.440000e-01 1.100200e+01
      vertex -2.652400e+01 4.500000e-01 1.100200e+01
    endloop
  endfacet
  facet normal 7.257485e-01 -6.879601e-01 0.000000e+00
    outer loop
      vertex -2.155600e+01 4.500000e-01 0.000000e+00
      vertex -2.279400e+01 -8.560001e-01 1.100200e+01
      vertex -2.279400e+01 -8.560001e-01 0.000000e+00
    endloop
  endfacet
  facet normal 7.257485e-01 -6.879601e-01 0.000000e+00
    outer loop
      vertex -2.279400e+01 -8.560001e-01 1.100200e+01
      vertex -2.155600e+01 4.500000e-01 0.000000e+00
      vertex -2.155600e+01 4.500000e-01 1.100200e+01
    endloop
  endfacet
  facet normal -7.731004e-01 6.342838e-01 0.000000e+00
    outer loop
      vertex -1.466200e+01 -1.838000e+00 1.100200e+01
      vertex -1.585000e+01 -3.286000e+00 0.000000e+00
      vertex -1.585000e+01 -3.286000e+00 1.100200e+01
    endloop
  endfacet
  facet normal -7.731004e-01 6.342838e-01 0.000000e+00
    outer loop
      vertex -1.585000e+01 -3.286000e+00 0.000000e+00
      vertex -1.466200e+01 -1.838000e+00 1.100200e+01
      vertex -1.466200e+01 -1.838000e+00 0.000000e+00
    endloop
  endfacet
  facet normal 1.000000e+00 0.000000e+00 0.000000e+00
    outer loop
      vertex 3.026000e+01 6.578001e+00 0.000000e+00
      vertex 3.026000e+01 5.222000e+00 1.100200e+01
      vertex 3.026000e+01 5.222000e+00 0.000000e+00
    endloop
  endfacet
  facet normal 1.000000e+00 0.000000e+00 0.000000e+00
    outer loop
      vertex 3.026000e+01 5.222000e+00 1.100200e+01
      vertex 3.026000e+01 6.578001e+00 0.000000e+00
      vertex 3.026000e+01 6.578001e+00 1.100200e+01
    endloop
  endfacet
  facet normal 9.970544e-01 7.669758e-02 0.000000e+00
    outer loop
      vertex -1.092600e+01 2.634000e+00 0.000000e+00
      vertex -1.090400e+01 2.348000e+00 1.100200e+01
      vertex -1.090400e+01 2.348000e+00 0.000000e+00
    endloop
  endfacet
  facet normal 9.970544e-01 7.669758e-02 0.000000e+00
    outer loop
      vertex -1.090400e+01 2.348000e+00 1.100200e+01
      vertex -1.092600e+01 2.634000e+00 0.000000e+00
      vertex -1.092600e+01 2.634000e+00 1.100200e+01
    endloop
  endfacet
  facet normal -7.628955e-01 6.465219e-01 0.000000e+00
    outer loop
      vertex -2.216800e+01 -1.870000e+00 1.100200e+01
      vertex -2.336800e+01 -3.286000e+00 0.000000e+00
      vertex -2.336800e+01 -3.286000e+00 1.100200e+01
    endloop
  endfacet
  facet normal -7.628955e-01 6.465219e-01 0.000000e+00
    outer loop
      vertex -2.336800e+01 -3.286000e+00 0.000000e+00
      vertex -2.216800e+01 -1.870000e+00 1.100200e+01
      vertex -2.216800e+01 -1.870000e+00 0.000000e+00
    endloop
  endfacet
  facet normal 7.299192e-01 6.835260e-01 3.184873e-03
    outer loop
      vertex -2.216800e+01 -1.870000e+00 0.000000e+00
      vertex -2.085400e+01 -3.286000e+00 2.750000e+00
      vertex -2.084200e+01 -3.286000e+00 0.000000e+00
    endloop
  endfacet
  facet normal 7.330145e-01 6.802130e-01 0.000000e+00
    outer loop
      vertex -2.085400e+01 -3.286000e+00 2.750000e+00
      vertex -2.216800e+01 -1.870000e+00 0.000000e+00
      vertex -2.085400e+01 -3.286000e+00 1.100200e+01
    endloop
  endfacet
  facet normal 7.330145e-01 6.802131e-01 0.000000e+00
    outer loop
      vertex -2.085400e+01 -3.286000e+00 1.100200e+01
      vertex -2.216800e+01 -1.870000e+00 0.000000e+00
      vertex -2.216800e+01 -1.870000e+00 1.100200e+01
    endloop
  endfacet
  facet normal 9.164953e-01 4.000454e-01 0.000000e+00
    outer loop
      vertex 4.190000e+00 -4.836000e+00 0.000000e+00
      vertex 7.338000e+00 -1.204800e+01 1.100200e+01
      vertex 7.338000e+00 -1.204800e+01 0.000000e+00
    endloop
  endfacet
  facet normal 9.164953e-01 4.000454e-01 0.000000e+00
    outer loop
      vertex 7.338000e+00 -1.204800e+01 1.100200e+01
      vertex 4.190000e+00 -4.836000e+00 0.000000e+00
      vertex 4.190000e+00 -4.836000e+00 1.100200e+01
    endloop
  endfacet
  facet normal -7.367940e-01 6.761174e-01 0.000000e+00
    outer loop
      vertex -2.458600e+01 -1.926000e+00 1.100200e+01
      vertex -2.583400e+01 -3.286000e+00 0.000000e+00
      vertex -2.583400e+01 -3.286000e+00 1.100200e+01
    endloop
  endfacet
  facet normal -7.367940e-01 6.761174e-01 0.000000e+00
    outer loop
      vertex -2.583400e+01 -3.286000e+00 0.000000e+00
      vertex -2.458600e+01 -1.926000e+00 1.100200e+01
      vertex -2.458600e+01 -1.926000e+00 0.000000e+00
    endloop
  endfacet
  facet normal -7.174997e-01 -6.965588e-01 0.000000e+00
    outer loop
      vertex -1.905400e+01 4.500000e-01 1.100200e+01
      vertex -1.779000e+01 -8.520001e-01 0.000000e+00
      vertex -1.779000e+01 -8.520001e-01 1.100200e+01
    endloop
  endfacet
  facet normal -7.174997e-01 -6.965588e-01 0.000000e+00
    outer loop
      vertex -1.779000e+01 -8.520001e-01 0.000000e+00
      vertex -1.905400e+01 4.500000e-01 1.100200e+01
      vertex -1.905400e+01 4.500000e-01 0.000000e+00
    endloop
  endfacet
  facet normal 7.216353e-01 -6.922734e-01 0.000000e+00
    outer loop
      vertex -1.406200e+01 4.500000e-01 0.000000e+00
      vertex -1.528800e+01 -8.280001e-01 1.100200e+01
      vertex -1.528800e+01 -8.280001e-01 0.000000e+00
    endloop
  endfacet
  facet normal 7.216353e-01 -6.922734e-01 0.000000e+00
    outer loop
      vertex -1.528800e+01 -8.280001e-01 1.100200e+01
      vertex -1.406200e+01 4.500000e-01 0.000000e+00
      vertex -1.406200e+01 4.500000e-01 1.100200e+01
    endloop
  endfacet
  facet normal -6.431247e-01 -7.657616e-01 -0.000000e+00
    outer loop
      vertex 3.026000e+01 -8.884001e+00 1.100200e+01
      vertex 2.386600e+01 -3.514000e+00 0.000000e+00
      vertex 3.026000e+01 -8.884001e+00 0.000000e+00
    endloop
  endfacet
  facet normal -6.431247e-01 -7.657616e-01 0.000000e+00
    outer loop
      vertex 2.386600e+01 -3.514000e+00 0.000000e+00
      vertex 3.026000e+01 -8.884001e+00 1.100200e+01
      vertex 2.386600e+01 -3.514000e+00 1.100200e+01
    endloop
  endfacet
  facet normal -7.218729e-01 -6.920256e-01 0.000000e+00
    outer loop
      vertex -2.404600e+01 4.500000e-01 1.100200e+01
      vertex -2.279400e+01 -8.560001e-01 0.000000e+00
      vertex -2.279400e+01 -8.560001e-01 1.100200e+01
    endloop
  endfacet
  facet normal -7.218729e-01 -6.920256e-01 0.000000e+00
    outer loop
      vertex -2.279400e+01 -8.560001e-01 0.000000e+00
      vertex -2.404600e+01 4.500000e-01 1.100200e+01
      vertex -2.404600e+01 4.500000e-01 0.000000e+00
    endloop
  endfacet
  facet normal 0.000000e+00 0.000000e+00 -1.000000e+00
    outer loop
      vertex -2.716200e+01 -1.960000e+00 0.000000e+00
      vertex -2.671400e+01 -4.866000e+00 0.000000e+00
      vertex -2.835800e+01 -3.278000e+00 0.000000e+00
    endloop
  endfacet
  facet normal 0.000000e+00 0.000000e+00 -1.000000e+00
    outer loop
      vertex -2.671400e+01 -4.866000e+00 0.000000e+00
      vertex -2.716200e+01 -1.960000e+00 0.000000e+00
      vertex -2.583400e+01 -3.286000e+00 0.000000e+00
    endloop
  endfacet
  facet normal 0.000000e+00 0.000000e+00 -1.000000e+00
    outer loop
      vertex -2.671400e+01 -4.866000e+00 0.000000e+00
      vertex -2.583400e+01 -3.286000e+00 0.000000e+00
      vertex -3.744000e+00 -4.866000e+00 0.000000e+00
    endloop
  endfacet
  facet normal 0.000000e+00 0.000000e+00 -1.000000e+00
    outer loop
      vertex -3.744000e+00 -4.866000e+00 0.000000e+00
      vertex -2.583400e+01 -3.286000e+00 0.000000e+00
      vertex -2.336800e+01 -3.286000e+00 0.000000e+00
    endloop
  endfacet
  facet normal 0.000000e+00 0.000000e+00 -1.000000e+00
    outer loop
      vertex -2.336800e+01 -3.286000e+00 0.000000e+00
      vertex -2.583400e+01 -3.286000e+00 0.000000e+00
      vertex -2.458600e+01 -1.926000e+00 0.000000e+00
    endloop
  endfacet
  facet normal 0.000000e+00 0.000000e+00 -1.000000e+00
    outer loop
      vertex -3.744000e+00 -4.866000e+00 0.000000e+00
      vertex -2.336800e+01 -3.286000e+00 0.000000e+00
      vertex -2.084200e+01 -3.286000e+00 0.000000e+00
    endloop
  endfacet
  facet normal 0.000000e+00 0.000000e+00 -1.000000e+00
    outer loop
      vertex -2.084200e+01 -3.286000e+00 0.000000e+00
      vertex -2.336800e+01 -3.286000e+00 0.000000e+00
      vertex -2.216800e+01 -1.870000e+00 0.000000e+00
    endloop
  endfacet
  facet normal 0.000000e+00 0.000000e+00 -1.000000e+00
    outer loop
      vertex -3.744000e+00 -4.866000e+00 0.000000e+00
      vertex -2.084200e+01 -3.286000e+00 0.000000e+00
      vertex -1.833800e+01 -3.286000e+00 0.000000e+00
    endloop
  endfacet
  facet normal 0.000000e+00 0.000000e+00 -1.000000e+00
    outer loop
      vertex -1.833800e+01 -3.286000e+00 0.000000e+00
      vertex -2.084200e+01 -3.286000e+00 0.000000e+00
      vertex -1.961800e+01 -1.870000e+00 0.000000e+00
    endloop
  endfacet
  facet normal 0.000000e+00 0.000000e+00 -1.000000e+00
    outer loop
      vertex -3.744000e+00 -4.866000e+00 0.000000e+00
      vertex -1.833800e+01 -3.286000e+00 0.000000e+00
      vertex -1.585000e+01 -3.286000e+00 0.000000e+00
    endloop
  endfacet
  facet normal 0.000000e+00 0.000000e+00 -1.000000e+00
    outer loop
      vertex -1.585000e+01 -3.286000e+00 0.000000e+00
      vertex -1.833800e+01 -3.286000e+00 0.000000e+00
      vertex -1.716400e+01 -1.838000e+00 0.000000e+00
    endloop
  endfacet
  facet normal 0.000000e+00 0.000000e+00 -1.000000e+00
    outer loop
      vertex -3.744000e+00 -4.866000e+00 0.000000e+00
      vertex -1.585000e+01 -3.286000e+00 0.000000e+00
      vertex -1.334800e+01 -3.276000e+00 0.000000e+00
    endloop
  endfacet
  facet normal 0.000000e+00 0.000000e+00 -1.000000e+00
    outer loop
      vertex -1.334800e+01 -3.276000e+00 0.000000e+00
      vertex -1.585000e+01 -3.286000e+00 0.000000e+00
      vertex -1.466200e+01 -1.838000e+00 0.000000e+00
    endloop
  endfacet
  facet normal 0.000000e+00 0.000000e+00 -1.000000e+00
    outer loop
      vertex -3.744000e+00 -4.866000e+00 0.000000e+00
      vertex -1.334800e+01 -3.276000e+00 0.000000e+00
      vertex -1.182400e+01 -1.736000e+00 0.000000e+00
    endloop
  endfacet
  facet normal 0.000000e+00 0.000000e+00 -1.000000e+00
    outer loop
      vertex -3.744000e+00 -4.866000e+00 0.000000e+00
      vertex -1.182400e+01 -1.736000e+00 0.000000e+00
      vertex -1.065200e+01 1.840000e+00 0.000000e+00
    endloop
  endfacet
  facet normal 0.000000e+00 0.000000e+00 -1.000000e+00
    outer loop
      vertex -1.065200e+01 1.840000e+00 0.000000e+00
      vertex -1.182400e+01 -1.736000e+00 0.000000e+00
      vertex -1.081200e+01 2.078000e+00 0.000000e+00
    endloop
  endfacet
  facet normal 0.000000e+00 0.000000e+00 -1.000000e+00
    outer loop
      vertex -1.081200e+01 2.078000e+00 0.000000e+00
      vertex -1.182400e+01 -1.736000e+00 0.000000e+00
      vertex -1.090400e+01 2.348000e+00 0.000000e+00
    endloop
  endfacet
  facet normal 0.000000e+00 0.000000e+00 -1.000000e+00
    outer loop
      vertex -1.090400e+01 2.348000e+00 0.000000e+00
      vertex -1.182400e+01 -1.736000e+00 0.000000e+00
      vertex -1.092600e+01 2.634000e+00 0.000000e+00
    endloop
  endfacet
  facet normal 0.000000e+00 0.000000e+00 -1.000000e+00
    outer loop
      vertex -3.744000e+00 -4.866000e+00 0.000000e+00
      vertex -1.065200e+01 1.840000e+00 0.000000e+00
      vertex -1.043600e+01 1.652000e+00 0.000000e+00
    endloop
  endfacet
  facet normal 0.000000e+00 0.000000e+00 -1.000000e+00
    outer loop
      vertex -3.744000e+00 -4.866000e+00 0.000000e+00
      vertex -1.043600e+01 1.652000e+00 0.000000e+00
      vertex -1.017800e+01 1.528000e+00 0.000000e+00
    endloop
  endfacet
  facet normal 0.000000e+00 0.000000e+00 -1.000000e+00
    outer loop
      vertex -3.744000e+00 -4.866000e+00 0.000000e+00
      vertex -1.017800e+01 1.528000e+00 0.000000e+00
      vertex -9.896001e+00 1.474000e+00 0.000000e+00
    endloop
  endfacet
  facet normal 0.000000e+00 0.000000e+00 -1.000000e+00
    outer loop
      vertex -3.744000e+00 -4.866000e+00 0.000000e+00
      vertex -9.896001e+00 1.474000e+00 0.000000e+00
      vertex -9.612000e+00 1.494000e+00 0.000000e+00
    endloop
  endfacet
  facet normal 0.000000e+00 0.000000e+00 -1.000000e+00
    outer loop
      vertex -3.744000e+00 -4.866000e+00 0.000000e+00
      vertex -9.612000e+00 1.494000e+00 0.000000e+00
      vertex -9.340000e+00 1.586000e+00 0.000000e+00
    endloop
  endfacet
  facet normal 0.000000e+00 0.000000e+00 -1.000000e+00
    outer loop
      vertex -3.744000e+00 -4.866000e+00 0.000000e+00
      vertex -9.340000e+00 1.586000e+00 0.000000e+00
      vertex -9.104000e+00 1.748000e+00 0.000000e+00
    endloop
  endfacet
  facet normal 0.000000e+00 0.000000e+00 -1.000000e+00
    outer loop
      vertex -3.744000e+00 -4.866000e+00 0.000000e+00
      vertex -9.104000e+00 1.748000e+00 0.000000e+00
      vertex -8.916000e+00 1.964000e+00 0.000000e+00
    endloop
  endfacet
  facet normal 0.000000e+00 0.000000e+00 -1.000000e+00
    outer loop
      vertex -3.744000e+00 -4.866000e+00 0.000000e+00
      vertex -8.916000e+00 1.964000e+00 0.000000e+00
      vertex -8.792001e+00 2.220000e+00 0.000000e+00
    endloop
  endfacet
  facet normal 0.000000e+00 0.000000e+00 -1.000000e+00
    outer loop
      vertex -3.744000e+00 -4.866000e+00 0.000000e+00
      vertex -8.792001e+00 2.220000e+00 0.000000e+00
      vertex -8.736000e+00 2.502000e+00 0.000000e+00
    endloop
  endfacet
  facet normal 0.000000e+00 0.000000e+00 -1.000000e+00
    outer loop
      vertex -3.334400e+01 4.878000e+00 0.000000e+00
      vertex -2.652400e+01 4.500000e-01 0.000000e+00
      vertex -2.778600e+01 -8.700001e-01 0.000000e+00
    endloop
  endfacet
  facet normal 0.000000e+00 0.000000e+00 -1.000000e+00
    outer loop
      vertex -2.652400e+01 4.500000e-01 0.000000e+00
      vertex -3.334400e+01 4.878000e+00 0.000000e+00
      vertex -1.005000e+01 3.640000e+00 0.000000e+00
    endloop
  endfacet
  facet normal 0.000000e+00 0.000000e+00 -1.000000e+00
    outer loop
      vertex -1.005000e+01 3.640000e+00 0.000000e+00
      vertex -3.334400e+01 4.878000e+00 0.000000e+00
      vertex -1.637400e+01 4.878000e+00 0.000000e+00
    endloop
  endfacet
  facet normal 0.000000e+00 0.000000e+00 -1.000000e+00
    outer loop
      vertex -2.652400e+01 4.500000e-01 0.000000e+00
      vertex -1.005000e+01 3.640000e+00 0.000000e+00
      vertex -2.404600e+01 4.500000e-01 0.000000e+00
    endloop
  endfacet
  facet normal 0.000000e+00 0.000000e+00 -1.000000e+00
    outer loop
      vertex -2.652400e+01 4.500000e-01 0.000000e+00
      vertex -2.404600e+01 4.500000e-01 0.000000e+00
      vertex -2.521200e+01 -8.440000e-01 0.000000e+00
    endloop
  endfacet
  facet normal 0.000000e+00 0.000000e+00 -1.000000e+00
    outer loop
      vertex -2.404600e+01 4.500000e-01 0.000000e+00
      vertex -1.005000e+01 3.640000e+00 0.000000e+00
      vertex -2.155600e+01 4.500000e-01 0.000000e+00
    endloop
  endfacet
  facet normal 0.000000e+00 0.000000e+00 -1.000000e+00
    outer loop
      vertex -2.404600e+01 4.500000e-01 0.000000e+00
      vertex -2.155600e+01 4.500000e-01 0.000000e+00
      vertex -2.279400e+01 -8.560001e-01 0.000000e+00
    endloop
  endfacet
  facet normal 0.000000e+00 0.000000e+00 -1.000000e+00
    outer loop
      vertex -2.155600e+01 4.500000e-01 0.000000e+00
      vertex -1.005000e+01 3.640000e+00 0.000000e+00
      vertex -1.032000e+01 3.548000e+00 0.000000e+00
    endloop
  endfacet
  facet normal 0.000000e+00 0.000000e+00 -1.000000e+00
    outer loop
      vertex -2.155600e+01 4.500000e-01 0.000000e+00
      vertex -1.032000e+01 3.548000e+00 0.000000e+00
      vertex -1.905400e+01 4.500000e-01 0.000000e+00
    endloop
  endfacet
  facet normal 0.000000e+00 0.000000e+00 -1.000000e+00
    outer loop
      vertex -2.155600e+01 4.500000e-01 0.000000e+00
      vertex -1.905400e+01 4.500000e-01 0.000000e+00
      vertex -2.024400e+01 -8.520001e-01 0.000000e+00
    endloop
  endfacet
  facet normal 0.000000e+00 0.000000e+00 -1.000000e+00
    outer loop
      vertex -1.905400e+01 4.500000e-01 0.000000e+00
      vertex -1.032000e+01 3.548000e+00 0.000000e+00
      vertex -1.656400e+01 4.500000e-01 0.000000e+00
    endloop
  endfacet
  facet normal 0.000000e+00 0.000000e+00 -1.000000e+00
    outer loop
      vertex -1.905400e+01 4.500000e-01 0.000000e+00
      vertex -1.656400e+01 4.500000e-01 0.000000e+00
      vertex -1.779000e+01 -8.520001e-01 0.000000e+00
    endloop
  endfacet
  facet normal 0.000000e+00 0.000000e+00 -1.000000e+00
    outer loop
      vertex -1.656400e+01 4.500000e-01 0.000000e+00
      vertex -1.032000e+01 3.548000e+00 0.000000e+00
      vertex -1.055800e+01 3.388000e+00 0.000000e+00
    endloop
  endfacet
  facet normal 0.000000e+00 0.000000e+00 -1.000000e+00
    outer loop
      vertex -1.656400e+01 4.500000e-01 0.000000e+00
      vertex -1.055800e+01 3.388000e+00 0.000000e+00
      vertex -1.406200e+01 4.500000e-01 0.000000e+00
    endloop
  endfacet
  facet normal 0.000000e+00 0.000000e+00 -1.000000e+00
    outer loop
      vertex -1.656400e+01 4.500000e-01 0.000000e+00
      vertex -1.406200e+01 4.500000e-01 0.000000e+00
      vertex -1.528800e+01 -8.280001e-01 0.000000e+00
    endloop
  endfacet
  facet normal 0.000000e+00 0.000000e+00 -1.000000e+00
    outer loop
      vertex -1.406200e+01 4.500000e-01 0.000000e+00
      vertex -1.055800e+01 3.388000e+00 0.000000e+00
      vertex -1.074400e+01 3.172000e+00 0.000000e+00
    endloop
  endfacet
  facet normal 0.000000e+00 0.000000e+00 -1.000000e+00
    outer loop
      vertex -1.406200e+01 4.500000e-01 0.000000e+00
      vertex -1.074400e+01 3.172000e+00 0.000000e+00
      vertex -1.087000e+01 2.914000e+00 0.000000e+00
    endloop
  endfacet
  facet normal 0.000000e+00 0.000000e+00 -1.000000e+00
    outer loop
      vertex -1.406200e+01 4.500000e-01 0.000000e+00
      vertex -1.087000e+01 2.914000e+00 0.000000e+00
      vertex -1.182400e+01 -1.736000e+00 0.000000e+00
    endloop
  endfacet
  facet normal 0.000000e+00 0.000000e+00 -1.000000e+00
    outer loop
      vertex -1.182400e+01 -1.736000e+00 0.000000e+00
      vertex -1.087000e+01 2.914000e+00 0.000000e+00
      vertex -1.092600e+01 2.634000e+00 0.000000e+00
    endloop
  endfacet
  facet normal 0.000000e+00 0.000000e+00 -1.000000e+00
    outer loop
      vertex -1.005000e+01 3.640000e+00 0.000000e+00
      vertex 5.960000e-01 4.878000e+00 0.000000e+00
      vertex -9.766001e+00 3.662000e+00 0.000000e+00
    endloop
  endfacet
  facet normal 0.000000e+00 0.000000e+00 -1.000000e+00
    outer loop
      vertex -9.766001e+00 3.662000e+00 0.000000e+00
      vertex 5.960000e-01 4.878000e+00 0.000000e+00
      vertex -9.484000e+00 3.608000e+00 0.000000e+00
    endloop
  endfacet
  facet normal 0.000000e+00 0.000000e+00 -1.000000e+00
    outer loop
      vertex -9.484000e+00 3.608000e+00 0.000000e+00
      vertex 5.960000e-01 4.878000e+00 0.000000e+00
      vertex -9.226001e+00 3.482000e+00 0.000000e+00
    endloop
  endfacet
  facet normal 0.000000e+00 0.000000e+00 -1.000000e+00
    outer loop
      vertex -9.226001e+00 3.482000e+00 0.000000e+00
      vertex 5.960000e-01 4.878000e+00 0.000000e+00
      vertex -9.010000e+00 3.294000e+00 0.000000e+00
    endloop
  endfacet
  facet normal 0.000000e+00 0.000000e+00 -1.000000e+00
    outer loop
      vertex -9.010000e+00 3.294000e+00 0.000000e+00
      vertex 5.960000e-01 4.878000e+00 0.000000e+00
      vertex -8.850000e+00 3.058000e+00 0.000000e+00
    endloop
  endfacet
  facet normal 0.000000e+00 0.000000e+00 -1.000000e+00
    outer loop
      vertex -8.850000e+00 3.058000e+00 0.000000e+00
      vertex 5.960000e-01 4.878000e+00 0.000000e+00
      vertex -8.758000e+00 2.786000e+00 0.000000e+00
    endloop
  endfacet
  facet normal 0.000000e+00 0.000000e+00 -1.000000e+00
    outer loop
      vertex -8.758000e+00 2.786000e+00 0.000000e+00
      vertex 5.960000e-01 4.878000e+00 0.000000e+00
      vertex -8.736000e+00 2.502000e+00 0.000000e+00
    endloop
  endfacet
  facet normal 0.000000e+00 0.000000e+00 -1.000000e+00
    outer loop
      vertex -8.736000e+00 2.502000e+00 0.000000e+00
      vertex 5.960000e-01 4.878000e+00 0.000000e+00
      vertex -3.744000e+00 -4.866000e+00 0.000000e+00
    endloop
  endfacet
  facet normal 0.000000e+00 0.000000e+00 -1.000000e+00
    outer loop
      vertex -3.744000e+00 -4.866000e+00 0.000000e+00
      vertex 5.960000e-01 4.878000e+00 0.000000e+00
      vertex 1.796000e+00 -8.458000e+00 0.000000e+00
    endloop
  endfacet
  facet normal 0.000000e+00 0.000000e+00 -1.000000e+00
    outer loop
      vertex 1.796000e+00 -8.458000e+00 0.000000e+00
      vertex 5.960000e-01 4.878000e+00 0.000000e+00
      vertex 6.912000e+00 1.079000e+01 0.000000e+00
    endloop
  endfacet
  facet normal 0.000000e+00 0.000000e+00 -1.000000e+00
    outer loop
      vertex 1.796000e+00 -8.458000e+00 0.000000e+00
      vertex 6.912000e+00 1.079000e+01 0.000000e+00
      vertex 4.190000e+00 -4.836000e+00 0.000000e+00
    endloop
  endfacet
  facet normal 0.000000e+00 0.000000e+00 -1.000000e+00
    outer loop
      vertex 4.190000e+00 -4.836000e+00 0.000000e+00
      vertex 6.912000e+00 1.079000e+01 0.000000e+00
      vertex 1.402600e+01 -4.176000e+00 0.000000e+00
    endloop
  endfacet
  facet normal 0.000000e+00 0.000000e+00 -1.000000e+00
    outer loop
      vertex 1.402600e+01 -4.176000e+00 0.000000e+00
      vertex 6.912000e+00 1.079000e+01 0.000000e+00
      vertex 1.046000e+01 3.880000e+00 0.000000e+00
    endloop
  endfacet
  facet normal 0.000000e+00 0.000000e+00 -1.000000e+00
    outer loop
      vertex 1.402600e+01 -4.176000e+00 0.000000e+00
      vertex 1.046000e+01 3.880000e+00 0.000000e+00
      vertex 1.716200e+01 2.508000e+00 0.000000e+00
    endloop
  endfacet
  facet normal 0.000000e+00 0.000000e+00 -1.000000e+00
    outer loop
      vertex 1.402600e+01 -4.176000e+00 0.000000e+00
      vertex 1.716200e+01 2.508000e+00 0.000000e+00
      vertex 2.386600e+01 -3.514000e+00 0.000000e+00
    endloop
  endfacet
  facet normal 0.000000e+00 0.000000e+00 -1.000000e+00
    outer loop
      vertex 2.386600e+01 -3.514000e+00 0.000000e+00
      vertex 1.716200e+01 2.508000e+00 0.000000e+00
      vertex 2.386600e+01 1.134000e+00 0.000000e+00
    endloop
  endfacet
  facet normal 0.000000e+00 0.000000e+00 -1.000000e+00
    outer loop
      vertex 2.386600e+01 -3.514000e+00 0.000000e+00
      vertex 2.386600e+01 1.134000e+00 0.000000e+00
      vertex 3.026000e+01 6.578001e+00 0.000000e+00
    endloop
  endfacet
  facet normal 0.000000e+00 0.000000e+00 -1.000000e+00
    outer loop
      vertex 2.386600e+01 -3.514000e+00 0.000000e+00
      vertex 3.026000e+01 6.578001e+00 0.000000e+00
      vertex 2.706200e+01 -1.190000e+00 0.000000e+00
    endloop
  endfacet
  facet normal 0.000000e+00 0.000000e+00 -1.000000e+00
    outer loop
      vertex 2.706200e+01 -1.190000e+00 0.000000e+00
      vertex 3.026000e+01 6.578001e+00 0.000000e+00
      vertex 3.026000e+01 5.222000e+00 0.000000e+00
    endloop
  endfacet
  facet normal 0.000000e+00 0.000000e+00 -1.000000e+00
    outer loop
      vertex 2.706200e+01 -1.190000e+00 0.000000e+00
      vertex 3.026000e+01 -8.884001e+00 0.000000e+00
      vertex 2.386600e+01 -3.514000e+00 0.000000e+00
    endloop
  endfacet
  facet normal 0.000000e+00 0.000000e+00 -1.000000e+00
    outer loop
      vertex 3.026000e+01 -8.884001e+00 0.000000e+00
      vertex 2.706200e+01 -1.190000e+00 0.000000e+00
      vertex 3.026000e+01 -7.282001e+00 0.000000e+00
    endloop
  endfacet
  facet normal 0.000000e+00 0.000000e+00 -1.000000e+00
    outer loop
      vertex 7.338000e+00 -1.204800e+01 0.000000e+00
      vertex 1.796000e+00 -8.458000e+00 0.000000e+00
      vertex 4.190000e+00 -4.836000e+00 0.000000e+00
    endloop
  endfacet
  facet normal -7.107895e-01 7.034047e-01 0.000000e+00
    outer loop
      vertex -1.182400e+01 -1.736000e+00 1.100200e+01
      vertex -1.334800e+01 -3.276000e+00 0.000000e+00
      vertex -1.334800e+01 -3.276000e+00 1.100200e+01
    endloop
  endfacet
  facet normal -7.107895e-01 7.034047e-01 0.000000e+00
    outer loop
      vertex -1.334800e+01 -3.276000e+00 0.000000e+00
      vertex -1.182400e+01 -1.736000e+00 1.100200e+01
      vertex -1.182400e+01 -1.736000e+00 0.000000e+00
    endloop
  endfacet
  facet normal 7.381416e-01 -6.746458e-01 0.000000e+00
    outer loop
      vertex -1.905400e+01 4.500000e-01 0.000000e+00
      vertex -2.024400e+01 -8.520001e-01 1.100200e+01
      vertex -2.024400e+01 -8.520001e-01 0.000000e+00
    endloop
  endfacet
  facet normal 7.381416e-01 -6.746458e-01 0.000000e+00
    outer loop
      vertex -2.024400e+01 -8.520001e-01 1.100200e+01
      vertex -1.905400e+01 4.500000e-01 0.000000e+00
      vertex -1.905400e+01 4.500000e-01 1.100200e+01
    endloop
  endfacet
  facet normal 7.418339e-01 6.705836e-01 0.000000e+00
    outer loop
      vertex -1.961800e+01 -1.870000e+00 0.000000e+00
      vertex -1.833800e+01 -3.286000e+00 1.100200e+01
      vertex -1.833800e+01 -3.286000e+00 0.000000e+00
    endloop
  endfacet
  facet normal 7.418339e-01 6.705836e-01 0.000000e+00
    outer loop
      vertex -1.833800e+01 -3.286000e+00 1.100200e+01
      vertex -1.961800e+01 -1.870000e+00 0.000000e+00
      vertex -1.961800e+01 -1.870000e+00 1.100200e+01
    endloop
  endfacet
  facet normal 7.280359e-01 -6.855390e-01 0.000000e+00
    outer loop
      vertex -1.656400e+01 4.500000e-01 0.000000e+00
      vertex -1.779000e+01 -8.520001e-01 1.100200e+01
      vertex -1.779000e+01 -8.520001e-01 0.000000e+00
    endloop
  endfacet
  facet normal 7.280359e-01 -6.855390e-01 0.000000e+00
    outer loop
      vertex -1.779000e+01 -8.520001e-01 1.100200e+01
      vertex -1.656400e+01 4.500000e-01 0.000000e+00
      vertex -1.656400e+01 4.500000e-01 1.100200e+01
    endloop
  endfacet
  facet normal 7.065740e-01 7.076392e-01 0.000000e+00
    outer loop
      vertex -2.716200e+01 -1.960000e+00 1.100200e+01
      vertex -2.583400e+01 -3.286000e+00 0.000000e+00
      vertex -2.716200e+01 -1.960000e+00 0.000000e+00
    endloop
  endfacet
  facet normal 7.065740e-01 7.076392e-01 0.000000e+00
    outer loop
      vertex -2.583400e+01 -3.286000e+00 0.000000e+00
      vertex -2.716200e+01 -1.960000e+00 1.100200e+01
      vertex -2.583400e+01 -3.286000e+00 1.100200e+01
    endloop
  endfacet
  facet normal -6.987472e-01 -7.153687e-01 -0.000000e+00
    outer loop
      vertex -1.182400e+01 -1.736000e+00 1.100200e+01
      vertex -1.406200e+01 4.500000e-01 0.000000e+00
      vertex -1.182400e+01 -1.736000e+00 0.000000e+00
    endloop
  endfacet
  facet normal -6.987472e-01 -7.153687e-01 0.000000e+00
    outer loop
      vertex -1.406200e+01 4.500000e-01 0.000000e+00
      vertex -1.182400e+01 -1.736000e+00 1.100200e+01
      vertex -1.406200e+01 4.500000e-01 1.100200e+01
    endloop
  endfacet
  facet normal -9.472810e-01 -3.204038e-01 0.000000e+00
    outer loop
      vertex -8.850000e+00 3.058000e+00 1.100200e+01
      vertex -8.758000e+00 2.786000e+00 0.000000e+00
      vertex -8.758000e+00 2.786000e+00 1.100200e+01
    endloop
  endfacet
  facet normal -9.472810e-01 -3.204038e-01 0.000000e+00
    outer loop
      vertex -8.758000e+00 2.786000e+00 0.000000e+00
      vertex -8.850000e+00 3.058000e+00 1.100200e+01
      vertex -8.850000e+00 3.058000e+00 0.000000e+00
    endloop
  endfacet
  facet normal -8.277088e-01 -5.611578e-01 0.000000e+00
    outer loop
      vertex -9.010000e+00 3.294000e+00 1.100200e+01
      vertex -8.850000e+00 3.058000e+00 0.000000e+00
      vertex -8.850000e+00 3.058000e+00 1.100200e+01
    endloop
  endfacet
  facet normal -8.277088e-01 -5.611578e-01 0.000000e+00
    outer loop
      vertex -8.850000e+00 3.058000e+00 0.000000e+00
      vertex -9.010000e+00 3.294000e+00 1.100200e+01
      vertex -9.010000e+00 3.294000e+00 0.000000e+00
    endloop
  endfacet
  facet normal 7.228085e-01 -6.910483e-01 0.000000e+00
    outer loop
      vertex -2.652400e+01 4.500000e-01 0.000000e+00
      vertex -2.778600e+01 -8.700001e-01 1.100200e+01
      vertex -2.778600e+01 -8.700001e-01 0.000000e+00
    endloop
  endfacet
  facet normal 7.228085e-01 -6.910483e-01 0.000000e+00
    outer loop
      vertex -2.778600e+01 -8.700001e-01 1.100200e+01
      vertex -2.652400e+01 4.500000e-01 0.000000e+00
      vertex -2.652400e+01 4.500000e-01 1.100200e+01
    endloop
  endfacet
  facet normal -7.043965e-01 -7.098067e-01 -0.000000e+00
    outer loop
      vertex -2.024400e+01 -8.520001e-01 1.100200e+01
      vertex -2.155600e+01 4.500000e-01 0.000000e+00
      vertex -2.024400e+01 -8.520001e-01 0.000000e+00
    endloop
  endfacet
  facet normal -7.043965e-01 -7.098067e-01 0.000000e+00
    outer loop
      vertex -2.155600e+01 4.500000e-01 0.000000e+00
      vertex -2.024400e+01 -8.520001e-01 1.100200e+01
      vertex -2.155600e+01 4.500000e-01 1.100200e+01
    endloop
  endfacet
  facet normal 7.405412e-01 6.720109e-01 0.000000e+00
    outer loop
      vertex -1.716400e+01 -1.838000e+00 0.000000e+00
      vertex -1.585000e+01 -3.286000e+00 1.100200e+01
      vertex -1.585000e+01 -3.286000e+00 0.000000e+00
    endloop
  endfacet
  facet normal 7.405412e-01 6.720109e-01 0.000000e+00
    outer loop
      vertex -1.585000e+01 -3.286000e+00 1.100200e+01
      vertex -1.716400e+01 -1.838000e+00 0.000000e+00
      vertex -1.716400e+01 -1.838000e+00 1.100200e+01
    endloop
  endfacet
  facet normal 7.428943e-01 -6.694088e-01 0.000000e+00
    outer loop
      vertex -2.404600e+01 4.500000e-01 0.000000e+00
      vertex -2.521200e+01 -8.440000e-01 1.100200e+01
      vertex -2.521200e+01 -8.440000e-01 0.000000e+00
    endloop
  endfacet
  facet normal 7.428943e-01 -6.694088e-01 0.000000e+00
    outer loop
      vertex -2.521200e+01 -8.440000e-01 1.100200e+01
      vertex -2.404600e+01 4.500000e-01 0.000000e+00
      vertex -2.404600e+01 4.500000e-01 1.100200e+01
    endloop
  endfacet
  facet normal -7.405497e-01 6.720017e-01 0.000000e+00
    outer loop
      vertex -2.716200e+01 -1.960000e+00 1.100200e+01
      vertex -2.835800e+01 -3.278000e+00 0.000000e+00
      vertex -2.835800e+01 -3.278000e+00 1.100200e+01
    endloop
  endfacet
  facet normal -7.405497e-01 6.720017e-01 0.000000e+00
    outer loop
      vertex -2.835800e+01 -3.278000e+00 0.000000e+00
      vertex -2.716200e+01 -1.960000e+00 1.100200e+01
      vertex -2.716200e+01 -1.960000e+00 0.000000e+00
    endloop
  endfacet
  facet normal 1.000000e+00 0.000000e+00 0.000000e+00
    outer loop
      vertex 3.026000e+01 -7.282001e+00 0.000000e+00
      vertex 3.026000e+01 -8.884001e+00 1.100200e+01
      vertex 3.026000e+01 -8.884001e+00 0.000000e+00
    endloop
  endfacet
  facet normal 1.000000e+00 0.000000e+00 0.000000e+00
    outer loop
      vertex 3.026000e+01 -8.884001e+00 1.100200e+01
      vertex 3.026000e+01 -7.282001e+00 0.000000e+00
      vertex 3.026000e+01 -7.282001e+00 1.100200e+01
    endloop
  endfacet
  facet normal -7.767701e-01 6.297843e-01 0.000000e+00
    outer loop
      vertex -1.716400e+01 -1.838000e+00 1.100200e+01
      vertex -1.833800e+01 -3.286000e+00 0.000000e+00
      vertex -1.833800e+01 -3.286000e+00 1.100200e+01
    endloop
  endfacet
  facet normal -7.767701e-01 6.297843e-01 0.000000e+00
    outer loop
      vertex -1.833800e+01 -3.286000e+00 0.000000e+00
      vertex -1.716400e+01 -1.838000e+00 1.100200e+01
      vertex -1.716400e+01 -1.838000e+00 0.000000e+00
    endloop
  endfacet
  facet normal 0.000000e+00 0.000000e+00 1.000000e+00
    outer loop
      vertex -2.671400e+01 -4.866000e+00 1.100200e+01
      vertex -2.716200e+01 -1.960000e+00 1.100200e+01
      vertex -2.835800e+01 -3.278000e+00 1.100200e+01
    endloop
  endfacet
  facet normal 0.000000e+00 0.000000e+00 1.000000e+00
    outer loop
      vertex -2.716200e+01 -1.960000e+00 1.100200e+01
      vertex -2.671400e+01 -4.866000e+00 1.100200e+01
      vertex -2.583400e+01 -3.286000e+00 1.100200e+01
    endloop
  endfacet
  facet normal 0.000000e+00 0.000000e+00 1.000000e+00
    outer loop
      vertex -2.583400e+01 -3.286000e+00 1.100200e+01
      vertex -2.671400e+01 -4.866000e+00 1.100200e+01
      vertex -3.744000e+00 -4.866000e+00 1.100200e+01
    endloop
  endfacet
  facet normal 0.000000e+00 0.000000e+00 1.000000e+00
    outer loop
      vertex -2.583400e+01 -3.286000e+00 1.100200e+01
      vertex -3.744000e+00 -4.866000e+00 1.100200e+01
      vertex -2.336800e+01 -3.286000e+00 1.100200e+01
    endloop
  endfacet
  facet normal 0.000000e+00 0.000000e+00 1.000000e+00
    outer loop
      vertex -2.583400e+01 -3.286000e+00 1.100200e+01
      vertex -2.336800e+01 -3.286000e+00 1.100200e+01
      vertex -2.458600e+01 -1.926000e+00 1.100200e+01
    endloop
  endfacet
  facet normal 0.000000e+00 0.000000e+00 1.000000e+00
    outer loop
      vertex -2.336800e+01 -3.286000e+00 1.100200e+01
      vertex -3.744000e+00 -4.866000e+00 1.100200e+01
      vertex -2.085400e+01 -3.286000e+00 1.100200e+01
    endloop
  endfacet
  facet normal 0.000000e+00 0.000000e+00 1.000000e+00
    outer loop
      vertex -2.336800e+01 -3.286000e+00 1.100200e+01
      vertex -2.085400e+01 -3.286000e+00 1.100200e+01
      vertex -2.216800e+01 -1.870000e+00 1.100200e+01
    endloop
  endfacet
  facet normal 0.000000e+00 0.000000e+00 1.000000e+00
    outer loop
      vertex -2.085400e+01 -3.286000e+00 1.100200e+01
      vertex -3.744000e+00 -4.866000e+00 1.100200e+01
      vertex -1.833800e+01 -3.286000e+00 1.100200e+01
    endloop
  endfacet
  facet normal 0.000000e+00 0.000000e+00 1.000000e+00
    outer loop
      vertex -2.085400e+01 -3.286000e+00 1.100200e+01
      vertex -1.833800e+01 -3.286000e+00 1.100200e+01
      vertex -1.961800e+01 -1.870000e+00 1.100200e+01
    endloop
  endfacet
  facet normal 0.000000e+00 0.000000e+00 1.000000e+00
    outer loop
      vertex -1.833800e+01 -3.286000e+00 1.100200e+01
      vertex -3.744000e+00 -4.866000e+00 1.100200e+01
      vertex -1.585000e+01 -3.286000e+00 1.100200e+01
    endloop
  endfacet
  facet normal 0.000000e+00 0.000000e+00 1.000000e+00
    outer loop
      vertex -1.833800e+01 -3.286000e+00 1.100200e+01
      vertex -1.585000e+01 -3.286000e+00 1.100200e+01
      vertex -1.716400e+01 -1.838000e+00 1.100200e+01
    endloop
  endfacet
  facet normal 0.000000e+00 0.000000e+00 1.000000e+00
    outer loop
      vertex -1.585000e+01 -3.286000e+00 1.100200e+01
      vertex -3.744000e+00 -4.866000e+00 1.100200e+01
      vertex -1.334800e+01 -3.276000e+00 1.100200e+01
    endloop
  endfacet
  facet normal 0.000000e+00 0.000000e+00 1.000000e+00
    outer loop
      vertex -1.585000e+01 -3.286000e+00 1.100200e+01
      vertex -1.334800e+01 -3.276000e+00 1.100200e+01
      vertex -1.466200e+01 -1.838000e+00 1.100200e+01
    endloop
  endfacet
  facet normal 0.000000e+00 0.000000e+00 1.000000e+00
    outer loop
      vertex -1.334800e+01 -3.276000e+00 1.100200e+01
      vertex -3.744000e+00 -4.866000e+00 1.100200e+01
      vertex -1.182400e+01 -1.736000e+00 1.100200e+01
    endloop
  endfacet
  facet normal 0.000000e+00 0.000000e+00 1.000000e+00
    outer loop
      vertex -1.182400e+01 -1.736000e+00 1.100200e+01
      vertex -3.744000e+00 -4.866000e+00 1.100200e+01
      vertex -1.065200e+01 1.840000e+00 1.100200e+01
    endloop
  endfacet
  facet normal 0.000000e+00 0.000000e+00 1.000000e+00
    outer loop
      vertex -1.182400e+01 -1.736000e+00 1.100200e+01
      vertex -1.065200e+01 1.840000e+00 1.100200e+01
      vertex -1.081200e+01 2.078000e+00 1.100200e+01
    endloop
  endfacet
  facet normal 0.000000e+00 0.000000e+00 1.000000e+00
    outer loop
      vertex -1.182400e+01 -1.736000e+00 1.100200e+01
      vertex -1.081200e+01 2.078000e+00 1.100200e+01
      vertex -1.090400e+01 2.348000e+00 1.100200e+01
    endloop
  endfacet
  facet normal 0.000000e+00 0.000000e+00 1.000000e+00
    outer loop
      vertex -1.182400e+01 -1.736000e+00 1.100200e+01
      vertex -1.090400e+01 2.348000e+00 1.100200e+01
      vertex -1.092600e+01 2.634000e+00 1.100200e+01
    endloop
  endfacet
  facet normal 0.000000e+00 0.000000e+00 1.000000e+00
    outer loop
      vertex -1.065200e+01 1.840000e+00 1.100200e+01
      vertex -3.744000e+00 -4.866000e+00 1.100200e+01
      vertex -1.043600e+01 1.652000e+00 1.100200e+01
    endloop
  endfacet
  facet normal 0.000000e+00 0.000000e+00 1.000000e+00
    outer loop
      vertex -1.043600e+01 1.652000e+00 1.100200e+01
      vertex -3.744000e+00 -4.866000e+00 1.100200e+01
      vertex -1.017800e+01 1.528000e+00 1.100200e+01
    endloop
  endfacet
  facet normal 0.000000e+00 0.000000e+00 1.000000e+00
    outer loop
      vertex -1.017800e+01 1.528000e+00 1.100200e+01
      vertex -3.744000e+00 -4.866000e+00 1.100200e+01
      vertex -9.896001e+00 1.474000e+00 1.100200e+01
    endloop
  endfacet
  facet normal 0.000000e+00 0.000000e+00 1.000000e+00
    outer loop
      vertex -9.896001e+00 1.474000e+00 1.100200e+01
      vertex -3.744000e+00 -4.866000e+00 1.100200e+01
      vertex -9.612000e+00 1.494000e+00 1.100200e+01
    endloop
  endfacet
  facet normal 0.000000e+00 0.000000e+00 1.000000e+00
    outer loop
      vertex -9.612000e+00 1.494000e+00 1.100200e+01
      vertex -3.744000e+00 -4.866000e+00 1.100200e+01
      vertex -9.340000e+00 1.586000e+00 1.100200e+01
    endloop
  endfacet
  facet normal 0.000000e+00 0.000000e+00 1.000000e+00
    outer loop
      vertex -9.340000e+00 1.586000e+00 1.100200e+01
      vertex -3.744000e+00 -4.866000e+00 1.100200e+01
      vertex -9.104000e+00 1.748000e+00 1.100200e+01
    endloop
  endfacet
  facet normal 0.000000e+00 0.000000e+00 1.000000e+00
    outer loop
      vertex -9.104000e+00 1.748000e+00 1.100200e+01
      vertex -3.744000e+00 -4.866000e+00 1.100200e+01
      vertex -8.916000e+00 1.964000e+00 1.100200e+01
    endloop
  endfacet
  facet normal 0.000000e+00 0.000000e+00 1.000000e+00
    outer loop
      vertex -8.916000e+00 1.964000e+00 1.100200e+01
      vertex -3.744000e+00 -4.866000e+00 1.100200e+01
      vertex -8.792001e+00 2.220000e+00 1.100200e+01
    endloop
  endfacet
  facet normal 0.000000e+00 0.000000e+00 1.000000e+00
    outer loop
      vertex -8.792001e+00 2.220000e+00 1.100200e+01
      vertex -3.744000e+00 -4.866000e+00 1.100200e+01
      vertex -8.736000e+00 2.502000e+00 1.100200e+01
    endloop
  endfacet
  facet normal 0.000000e+00 0.000000e+00 1.000000e+00
    outer loop
      vertex -1.005000e+01 3.640000e+00 1.100200e+01
      vertex 5.960000e-01 4.878000e+00 1.100200e+01
      vertex -1.637400e+01 4.878000e+00 1.100200e+01
    endloop
  endfacet
  facet normal 0.000000e+00 0.000000e+00 1.000000e+00
    outer loop
      vertex -1.005000e+01 3.640000e+00 1.100200e+01
      vertex -3.334400e+01 4.878000e+00 1.100200e+01
      vertex -2.652400e+01 4.500000e-01 1.100200e+01
    endloop
  endfacet
  facet normal 0.000000e+00 0.000000e+00 1.000000e+00
    outer loop
      vertex -2.652400e+01 4.500000e-01 1.100200e+01
      vertex -3.334400e+01 4.878000e+00 1.100200e+01
      vertex -2.778600e+01 -8.700001e-01 1.100200e+01
    endloop
  endfacet
  facet normal 0.000000e+00 0.000000e+00 1.000000e+00
    outer loop
      vertex -1.005000e+01 3.640000e+00 1.100200e+01
      vertex -2.652400e+01 4.500000e-01 1.100200e+01
      vertex -2.404600e+01 4.500000e-01 1.100200e+01
    endloop
  endfacet
  facet normal 0.000000e+00 0.000000e+00 1.000000e+00
    outer loop
      vertex -2.404600e+01 4.500000e-01 1.100200e+01
      vertex -2.652400e+01 4.500000e-01 1.100200e+01
      vertex -2.521200e+01 -8.440000e-01 1.100200e+01
    endloop
  endfacet
  facet normal 0.000000e+00 0.000000e+00 1.000000e+00
    outer loop
      vertex -1.005000e+01 3.640000e+00 1.100200e+01
      vertex -2.404600e+01 4.500000e-01 1.100200e+01
      vertex -2.155600e+01 4.500000e-01 1.100200e+01
    endloop
  endfacet
  facet normal 0.000000e+00 0.000000e+00 1.000000e+00
    outer loop
      vertex -2.155600e+01 4.500000e-01 1.100200e+01
      vertex -2.404600e+01 4.500000e-01 1.100200e+01
      vertex -2.279400e+01 -8.560001e-01 1.100200e+01
    endloop
  endfacet
  facet normal 0.000000e+00 0.000000e+00 1.000000e+00
    outer loop
      vertex -1.005000e+01 3.640000e+00 1.100200e+01
      vertex -2.155600e+01 4.500000e-01 1.100200e+01
      vertex -1.032000e+01 3.548000e+00 1.100200e+01
    endloop
  endfacet
  facet normal 0.000000e+00 0.000000e+00 1.000000e+00
    outer loop
      vertex -1.032000e+01 3.548000e+00 1.100200e+01
      vertex -2.155600e+01 4.500000e-01 1.100200e+01
      vertex -1.905400e+01 4.500000e-01 1.100200e+01
    endloop
  endfacet
  facet normal 0.000000e+00 0.000000e+00 1.000000e+00
    outer loop
      vertex -1.905400e+01 4.500000e-01 1.100200e+01
      vertex -2.155600e+01 4.500000e-01 1.100200e+01
      vertex -2.024400e+01 -8.520001e-01 1.100200e+01
    endloop
  endfacet
  facet normal 0.000000e+00 0.000000e+00 1.000000e+00
    outer loop
      vertex -1.032000e+01 3.548000e+00 1.100200e+01
      vertex -1.905400e+01 4.500000e-01 1.100200e+01
      vertex -1.656400e+01 4.500000e-01 1.100200e+01
    endloop
  endfacet
  facet normal 0.000000e+00 0.000000e+00 1.000000e+00
    outer loop
      vertex -1.656400e+01 4.500000e-01 1.100200e+01
      vertex -1.905400e+01 4.500000e-01 1.100200e+01
      vertex -1.779000e+01 -8.520001e-01 1.100200e+01
    endloop
  endfacet
  facet normal 0.000000e+00 0.000000e+00 1.000000e+00
    outer loop
      vertex -1.032000e+01 3.548000e+00 1.100200e+01
      vertex -1.656400e+01 4.500000e-01 1.100200e+01
      vertex -1.055800e+01 3.388000e+00 1.100200e+01
    endloop
  endfacet
  facet normal 0.000000e+00 0.000000e+00 1.000000e+00
    outer loop
      vertex -1.055800e+01 3.388000e+00 1.100200e+01
      vertex -1.656400e+01 4.500000e-01 1.100200e+01
      vertex -1.406200e+01 4.500000e-01 1.100200e+01
    endloop
  endfacet
  facet normal 0.000000e+00 0.000000e+00 1.000000e+00
    outer loop
      vertex -1.406200e+01 4.500000e-01 1.100200e+01
      vertex -1.656400e+01 4.500000e-01 1.100200e+01
      vertex -1.528800e+01 -8.280001e-01 1.100200e+01
    endloop
  endfacet
  facet normal 0.000000e+00 0.000000e+00 1.000000e+00
    outer loop
      vertex -1.055800e+01 3.388000e+00 1.100200e+01
      vertex -1.406200e+01 4.500000e-01 1.100200e+01
      vertex -1.074400e+01 3.172000e+00 1.100200e+01
    endloop
  endfacet
  facet normal 0.000000e+00 0.000000e+00 1.000000e+00
    outer loop
      vertex -1.074400e+01 3.172000e+00 1.100200e+01
      vertex -1.406200e+01 4.500000e-01 1.100200e+01
      vertex -1.087000e+01 2.914000e+00 1.100200e+01
    endloop
  endfacet
  facet normal 0.000000e+00 0.000000e+00 1.000000e+00
    outer loop
      vertex -1.087000e+01 2.914000e+00 1.100200e+01
      vertex -1.406200e+01 4.500000e-01 1.100200e+01
      vertex -1.182400e+01 -1.736000e+00 1.100200e+01
    endloop
  endfacet
  facet normal 0.000000e+00 0.000000e+00 1.000000e+00
    outer loop
      vertex -1.087000e+01 2.914000e+00 1.100200e+01
      vertex -1.182400e+01 -1.736000e+00 1.100200e+01
      vertex -1.092600e+01 2.634000e+00 1.100200e+01
    endloop
  endfacet
  facet normal 0.000000e+00 0.000000e+00 1.000000e+00
    outer loop
      vertex 5.960000e-01 4.878000e+00 1.100200e+01
      vertex -1.005000e+01 3.640000e+00 1.100200e+01
      vertex -9.766001e+00 3.662000e+00 1.100200e+01
    endloop
  endfacet
  facet normal 0.000000e+00 0.000000e+00 1.000000e+00
    outer loop
      vertex 5.960000e-01 4.878000e+00 1.100200e+01
      vertex -9.766001e+00 3.662000e+00 1.100200e+01
      vertex -9.484000e+00 3.608000e+00 1.100200e+01
    endloop
  endfacet
  facet normal 0.000000e+00 0.000000e+00 1.000000e+00
    outer loop
      vertex 5.960000e-01 4.878000e+00 1.100200e+01
      vertex -9.484000e+00 3.608000e+00 1.100200e+01
      vertex -9.226001e+00 3.482000e+00 1.100200e+01
    endloop
  endfacet
  facet normal 0.000000e+00 0.000000e+00 1.000000e+00
    outer loop
      vertex 5.960000e-01 4.878000e+00 1.100200e+01
      vertex -9.226001e+00 3.482000e+00 1.100200e+01
      vertex -9.010000e+00 3.294000e+00 1.100200e+01
    endloop
  endfacet
  facet normal 0.000000e+00 0.000000e+00 1.000000e+00
    outer loop
      vertex 5.960000e-01 4.878000e+00 1.100200e+01
      vertex -9.010000e+00 3.294000e+00 1.100200e+01
      vertex -8.850000e+00 3.058000e+00 1.100200e+01
    endloop
  endfacet
  facet normal 0.000000e+00 0.000000e+00 1.000000e+00
    outer loop
      vertex 5.960000e-01 4.878000e+00 1.100200e+01
      vertex -8.850000e+00 3.058000e+00 1.100200e+01
      vertex -8.758000e+00 2.786000e+00 1.100200e+01
    endloop
  endfacet
  facet normal 0.000000e+00 0.000000e+00 1.000000e+00
    outer loop
      vertex 5.960000e-01 4.878000e+00 1.100200e+01
      vertex -8.758000e+00 2.786000e+00 1.100200e+01
      vertex -8.736000e+00 2.502000e+00 1.100200e+01
    endloop
  endfacet
  facet normal 0.000000e+00 0.000000e+00 1.000000e+00
    outer loop
      vertex -8.736000e+00 2.502000e+00 1.100200e+01
      vertex -3.744000e+00 -4.866000e+00 1.100200e+01
      vertex 5.960000e-01 4.878000e+00 1.100200e+01
    endloop
  endfacet
  facet normal 0.000000e+00 0.000000e+00 1.000000e+00
    outer loop
      vertex 6.912000e+00 1.079000e+01 1.100200e+01
      vertex 4.190000e+00 -4.836000e+00 1.100200e+01
      vertex 1.402600e+01 -4.176000e+00 1.100200e+01
    endloop
  endfacet
  facet normal 0.000000e+00 0.000000e+00 1.000000e+00
    outer loop
      vertex 6.912000e+00 1.079000e+01 1.100200e+01
      vertex 1.402600e+01 -4.176000e+00 1.100200e+01
      vertex 1.046000e+01 3.880000e+00 1.100200e+01
    endloop
  endfacet
  facet normal 0.000000e+00 0.000000e+00 1.000000e+00
    outer loop
      vertex 1.046000e+01 3.880000e+00 1.100200e+01
      vertex 1.402600e+01 -4.176000e+00 1.100200e+01
      vertex 1.716200e+01 2.508000e+00 1.100200e+01
    endloop
  endfacet
  facet normal 0.000000e+00 0.000000e+00 1.000000e+00
    outer loop
      vertex 1.716200e+01 2.508000e+00 1.100200e+01
      vertex 1.402600e+01 -4.176000e+00 1.100200e+01
      vertex 2.386600e+01 -3.514000e+00 1.100200e+01
    endloop
  endfacet
  facet normal 0.000000e+00 0.000000e+00 1.000000e+00
    outer loop
      vertex 1.716200e+01 2.508000e+00 1.100200e+01
      vertex 2.386600e+01 -3.514000e+00 1.100200e+01
      vertex 2.386600e+01 1.134000e+00 1.100200e+01
    endloop
  endfacet
  facet normal 0.000000e+00 0.000000e+00 1.000000e+00
    outer loop
      vertex 2.386600e+01 1.134000e+00 1.100200e+01
      vertex 2.386600e+01 -3.514000e+00 1.100200e+01
      vertex 3.026000e+01 -8.884001e+00 1.100200e+01
    endloop
  endfacet
  facet normal 0.000000e+00 0.000000e+00 1.000000e+00
    outer loop
      vertex 2.386600e+01 1.134000e+00 1.100200e+01
      vertex 3.026000e+01 -8.884001e+00 1.100200e+01
      vertex 2.706200e+01 -1.190000e+00 1.100200e+01
    endloop
  endfacet
  facet normal 0.000000e+00 0.000000e+00 1.000000e+00
    outer loop
      vertex 2.706200e+01 -1.190000e+00 1.100200e+01
      vertex 3.026000e+01 -8.884001e+00 1.100200e+01
      vertex 3.026000e+01 -7.282001e+00 1.100200e+01
    endloop
  endfacet
  facet normal 0.000000e+00 0.000000e+00 1.000000e+00
    outer loop
      vertex 2.706200e+01 -1.190000e+00 1.100200e+01
      vertex 3.026000e+01 6.578001e+00 1.100200e+01
      vertex 2.386600e+01 1.134000e+00 1.100200e+01
    endloop
  endfacet
  facet normal 0.000000e+00 0.000000e+00 1.000000e+00
    outer loop
      vertex 3.026000e+01 6.578001e+00 1.100200e+01
      vertex 2.706200e+01 -1.190000e+00 1.100200e+01
      vertex 3.026000e+01 5.222000e+00 1.100200e+01
    endloop
  endfacet
  facet normal 8.854159e-01 4.647997e-01 0.000000e+00
    outer loop
      vertex 2.706200e+01 -1.190000e+00 0.000000e+00
      vertex 3.026000e+01 -7.282001e+00 1.100200e+01
      vertex 3.026000e+01 -7.282001e+00 0.000000e+00
    endloop
  endfacet
  facet normal 8.854159e-01 4.647997e-01 0.000000e+00
    outer loop
      vertex 3.026000e+01 -7.282001e+00 1.100200e+01
      vertex 2.706200e+01 -1.190000e+00 0.000000e+00
      vertex 2.706200e+01 -1.190000e+00 1.100200e+01
    endloop
  endfacet
  facet normal -6.565235e-01 -7.543057e-01 -0.000000e+00
    outer loop
      vertex -9.010000e+00 3.294000e+00 1.100200e+01
      vertex -9.226001e+00 3.482000e+00 0.000000e+00
      vertex -9.010000e+00 3.294000e+00 0.000000e+00
    endloop
  endfacet
  facet normal -6.565235e-01 -7.543057e-01 0.000000e+00
    outer loop
      vertex -9.226001e+00 3.482000e+00 0.000000e+00
      vertex -9.010000e+00 3.294000e+00 1.100200e+01
      vertex -9.226001e+00 3.482000e+00 1.100200e+01
    endloop
  endfacet
  facet normal -6.833719e-01 7.300705e-01 0.000000e+00
    outer loop
      vertex 5.960000e-01 4.878000e+00 1.100200e+01
      vertex 6.912000e+00 1.079000e+01 0.000000e+00
      vertex 5.960000e-01 4.878000e+00 0.000000e+00
    endloop
  endfacet
  facet normal -6.833719e-01 7.300705e-01 0.000000e+00
    outer loop
      vertex 6.912000e+00 1.079000e+01 0.000000e+00
      vertex 5.960000e-01 4.878000e+00 1.100200e+01
      vertex 6.912000e+00 1.079000e+01 1.100200e+01
    endloop
  endfacet
  facet normal 8.948734e-01 -4.463202e-01 0.000000e+00
    outer loop
      vertex 3.026000e+01 5.222000e+00 0.000000e+00
      vertex 2.706200e+01 -1.190000e+00 1.100200e+01
      vertex 2.706200e+01 -1.190000e+00 0.000000e+00
    endloop
  endfacet
  facet normal 8.948734e-01 -4.463202e-01 0.000000e+00
    outer loop
      vertex 2.706200e+01 -1.190000e+00 1.100200e+01
      vertex 3.026000e+01 5.222000e+00 0.000000e+00
      vertex 3.026000e+01 5.222000e+00 1.100200e+01
    endloop
  endfacet
  facet normal -5.436782e-01 -8.392938e-01 -0.000000e+00
    outer loop
      vertex 7.338000e+00 -1.204800e+01 1.100200e+01
      vertex 1.796000e+00 -8.458000e+00 0.000000e+00
      vertex 7.338000e+00 -1.204800e+01 0.000000e+00
    endloop
  endfacet
  facet normal -5.440297e-01 -8.390660e-01 2.513843e-04
    outer loop
      vertex 7.338000e+00 -1.204800e+01 1.100200e+01
      vertex -3.744000e+00 -4.866000e+00 0.000000e+00
      vertex 1.796000e+00 -8.458000e+00 0.000000e+00
    endloop
  endfacet
  facet normal -5.440297e-01 -8.390659e-01 0.000000e+00
    outer loop
      vertex -3.744000e+00 -4.866000e+00 0.000000e+00
      vertex 1.796000e+00 -8.458000e+00 1.100200e+01
      vertex -3.744000e+00 -4.866000e+00 1.100200e+01
    endloop
  endfacet
  facet normal -5.436782e-01 -8.392937e-01 -2.513618e-04
    outer loop
      vertex -3.744000e+00 -4.866000e+00 0.000000e+00
      vertex 7.338000e+00 -1.204800e+01 1.100200e+01
      vertex 1.796000e+00 -8.458000e+00 1.100200e+01
    endloop
  endfacet
  facet normal -4.388366e-01 -8.985670e-01 -0.000000e+00
    outer loop
      vertex -9.226001e+00 3.482000e+00 1.100200e+01
      vertex -9.484000e+00 3.608000e+00 0.000000e+00
      vertex -9.226001e+00 3.482000e+00 0.000000e+00
    endloop
  endfacet
  facet normal -4.388366e-01 -8.985670e-01 0.000000e+00
    outer loop
      vertex -9.484000e+00 3.608000e+00 0.000000e+00
      vertex -9.226001e+00 3.482000e+00 1.100200e+01
      vertex -9.484000e+00 3.608000e+00 1.100200e+01
    endloop
  endfacet
  facet normal -1.880716e-01 -9.821553e-01 -0.000000e+00
    outer loop
      vertex -9.484000e+00 3.608000e+00 1.100200e+01
      vertex -9.766001e+00 3.662000e+00 0.000000e+00
      vertex -9.484000e+00 3.608000e+00 0.000000e+00
    endloop
  endfacet
  facet normal -1.880716e-01 -9.821553e-01 0.000000e+00
    outer loop
      vertex -9.766001e+00 3.662000e+00 0.000000e+00
      vertex -9.484000e+00 3.608000e+00 1.100200e+01
      vertex -9.766001e+00 3.662000e+00 1.100200e+01
    endloop
  endfacet
  facet normal 4.331847e-01 9.013052e-01 0.000000e+00
    outer loop
      vertex -1.043600e+01 1.652000e+00 1.100200e+01
      vertex -1.017800e+01 1.528000e+00 0.000000e+00
      vertex -1.043600e+01 1.652000e+00 0.000000e+00
    endloop
  endfacet
  facet normal 4.331847e-01 9.013052e-01 0.000000e+00
    outer loop
      vertex -1.017800e+01 1.528000e+00 0.000000e+00
      vertex -1.043600e+01 1.652000e+00 1.100200e+01
      vertex -1.017800e+01 1.528000e+00 1.100200e+01
    endloop
  endfacet
  facet normal 0.000000e+00 1.000000e+00 0.000000e+00
    outer loop
      vertex -3.334400e+01 4.878000e+00 0.000000e+00
      vertex -3.334400e+01 4.878000e+00 1.100200e+01
      vertex -1.637400e+01 4.878000e+00 5.500000e+00
    endloop
  endfacet
  facet normal 0.000000e+00 1.000000e+00 0.000000e+00
    outer loop
      vertex -1.637400e+01 4.878000e+00 5.500000e+00
      vertex -1.637400e+01 4.878000e+00 1.100200e+01
      vertex 5.960000e-01 4.878000e+00 1.100200e+01
    endloop
  endfacet
  facet normal 0.000000e+00 -1.000000e+00 0.000000e+00
    outer loop
      vertex -3.744000e+00 -4.866000e+00 1.100200e+01
      vertex -2.671400e+01 -4.866000e+00 0.000000e+00
      vertex -3.744000e+00 -4.866000e+00 0.000000e+00
    endloop
  endfacet
  facet normal 0.000000e+00 -1.000000e+00 0.000000e+00
    outer loop
      vertex -2.671400e+01 -4.866000e+00 0.000000e+00
      vertex -3.744000e+00 -4.866000e+00 1.100200e+01
      vertex -2.671400e+01 -4.866000e+00 1.100200e+01
    endloop
  endfacet
  facet normal 1.880726e-01 9.821551e-01 0.000000e+00
    outer loop
      vertex -1.017800e+01 1.528000e+00 1.100200e+01
      vertex -9.896001e+00 1.474000e+00 0.000000e+00
      vertex -1.017800e+01 1.528000e+00 0.000000e+00
    endloop
  endfacet
  facet normal 1.880726e-01 9.821551e-01 0.000000e+00
    outer loop
      vertex -9.896001e+00 1.474000e+00 0.000000e+00
      vertex -1.017800e+01 1.528000e+00 1.100200e+01
      vertex -9.896001e+00 1.474000e+00 1.100200e+01
    endloop
  endfacet
  facet normal 6.565251e-01 7.543042e-01 0.000000e+00
    outer loop
      vertex -1.065200e+01 1.840000e+00 1.100200e+01
      vertex -1.043600e+01 1.652000e+00 0.000000e+00
      vertex -1.065200e+01 1.840000e+00 0.000000e+00
    endloop
  endfacet
  facet normal 6.565251e-01 7.543042e-01 0.000000e+00
    outer loop
      vertex -1.043600e+01 1.652000e+00 0.000000e+00
      vertex -1.065200e+01 1.840000e+00 1.100200e+01
      vertex -1.043600e+01 1.652000e+00 1.100200e+01
    endloop
  endfacet
  facet normal -7.024840e-02 9.975295e-01 0.000000e+00
    outer loop
      vertex -9.896001e+00 1.474000e+00 1.100200e+01
      vertex -9.612000e+00 1.494000e+00 0.000000e+00
      vertex -9.896001e+00 1.474000e+00 0.000000e+00
    endloop
  endfacet
  facet normal -7.024840e-02 9.975295e-01 0.000000e+00
    outer loop
      vertex -9.612000e+00 1.494000e+00 0.000000e+00
      vertex -9.896001e+00 1.474000e+00 1.100200e+01
      vertex -9.612000e+00 1.494000e+00 1.100200e+01
    endloop
  endfacet
  facet normal -6.482772e-01 7.614043e-01 0.000000e+00
    outer loop
      vertex 2.386600e+01 1.134000e+00 1.100200e+01
      vertex 3.026000e+01 6.578001e+00 0.000000e+00
      vertex 2.386600e+01 1.134000e+00 0.000000e+00
    endloop
  endfacet
  facet normal -6.482772e-01 7.614043e-01 0.000000e+00
    outer loop
      vertex 3.026000e+01 6.578001e+00 0.000000e+00
      vertex 2.386600e+01 1.134000e+00 1.100200e+01
      vertex 3.026000e+01 6.578001e+00 1.100200e+01
    endloop
  endfacet
  facet normal 6.712468e-02 -9.977446e-01 0.000000e+00
    outer loop
      vertex 2.386600e+01 -3.514000e+00 1.100200e+01
      vertex 1.402600e+01 -4.176000e+00 0.000000e+00
      vertex 2.386600e+01 -3.514000e+00 0.000000e+00
    endloop
  endfacet
  facet normal 6.694992e-02 -9.977564e-01 1.570024e-04
    outer loop
      vertex 1.402600e+01 -4.176000e+00 0.000000e+00
      vertex 2.386600e+01 -3.514000e+00 1.100200e+01
      vertex 4.190000e+00 -4.836000e+00 0.000000e+00
    endloop
  endfacet
  facet normal 6.703732e-02 -9.977505e-01 0.000000e+00
    outer loop
      vertex 4.190000e+00 -4.836000e+00 0.000000e+00
      vertex 2.386600e+01 -3.514000e+00 1.100200e+01
      vertex 4.190000e+00 -4.836000e+00 1.100200e+01
    endloop
  endfacet
  facet normal 0.000000e+00 0.000000e+00 -1.000000e+00
    outer loop
      vertex 4.190000e+00 -4.836000e+00 1.100200e+01
      vertex 2.386600e+01 -3.514000e+00 1.100200e+01
      vertex 1.402600e+01 -4.176000e+00 1.100200e+01
    endloop
  endfacet
  facet normal -8.999819e-01 4.359275e-01 0.000000e+00
    outer loop
      vertex -8.792001e+00 2.220000e+00 1.100200e+01
      vertex -8.916000e+00 1.964000e+00 0.000000e+00
      vertex -8.916000e+00 1.964000e+00 1.100200e+01
    endloop
  endfacet
  facet normal -8.999819e-01 4.359275e-01 0.000000e+00
    outer loop
      vertex -8.916000e+00 1.964000e+00 0.000000e+00
      vertex -8.792001e+00 2.220000e+00 1.100200e+01
      vertex -8.792001e+00 2.220000e+00 0.000000e+00
    endloop
  endfacet
  facet normal 7.723381e-02 -9.970130e-01 0.000000e+00
    outer loop
      vertex -9.766001e+00 3.662000e+00 1.100200e+01
      vertex -1.005000e+01 3.640000e+00 0.000000e+00
      vertex -9.766001e+00 3.662000e+00 0.000000e+00
    endloop
  endfacet
  facet normal 7.723381e-02 -9.970130e-01 0.000000e+00
    outer loop
      vertex -1.005000e+01 3.640000e+00 0.000000e+00
      vertex -9.766001e+00 3.662000e+00 1.100200e+01
      vertex -1.005000e+01 3.640000e+00 1.100200e+01
    endloop
  endfacet
  facet normal -5.659354e-01 8.244497e-01 0.000000e+00
    outer loop
      vertex -9.340000e+00 1.586000e+00 1.100200e+01
      vertex -9.104000e+00 1.748000e+00 0.000000e+00
      vertex -9.340000e+00 1.586000e+00 0.000000e+00
    endloop
  endfacet
  facet normal -5.659354e-01 8.244497e-01 0.000000e+00
    outer loop
      vertex -9.104000e+00 1.748000e+00 0.000000e+00
      vertex -9.340000e+00 1.586000e+00 1.100200e+01
      vertex -9.104000e+00 1.748000e+00 1.100200e+01
    endloop
  endfacet
  facet normal 8.298985e-01 5.579143e-01 0.000000e+00
    outer loop
      vertex -1.081200e+01 2.078000e+00 0.000000e+00
      vertex -1.065200e+01 1.840000e+00 1.100200e+01
      vertex -1.065200e+01 1.840000e+00 0.000000e+00
    endloop
  endfacet
  facet normal 8.298985e-01 5.579143e-01 0.000000e+00
    outer loop
      vertex -1.065200e+01 1.840000e+00 1.100200e+01
      vertex -1.081200e+01 2.078000e+00 0.000000e+00
      vertex -1.081200e+01 2.078000e+00 1.100200e+01
    endloop
  endfacet
  facet normal 7.577692e-01 -6.525227e-01 0.000000e+00
    outer loop
      vertex -1.055800e+01 3.388000e+00 0.000000e+00
      vertex -1.074400e+01 3.172000e+00 1.100200e+01
      vertex -1.074400e+01 3.172000e+00 0.000000e+00
    endloop
  endfacet
  facet normal 7.577692e-01 -6.525227e-01 0.000000e+00
    outer loop
      vertex -1.074400e+01 3.172000e+00 1.100200e+01
      vertex -1.055800e+01 3.388000e+00 0.000000e+00
      vertex -1.055800e+01 3.388000e+00 1.100200e+01
    endloop
  endfacet
  facet normal -3.204035e-01 9.472811e-01 0.000000e+00
    outer loop
      vertex -9.612000e+00 1.494000e+00 1.100200e+01
      vertex -9.340000e+00 1.586000e+00 0.000000e+00
      vertex -9.612000e+00 1.494000e+00 0.000000e+00
    endloop
  endfacet
  facet normal -3.204035e-01 9.472811e-01 0.000000e+00
    outer loop
      vertex -9.340000e+00 1.586000e+00 0.000000e+00
      vertex -9.612000e+00 1.494000e+00 1.100200e+01
      vertex -9.340000e+00 1.586000e+00 1.100200e+01
    endloop
  endfacet
  facet normal 5.579146e-01 -8.298984e-01 0.000000e+00
    outer loop
      vertex -1.032000e+01 3.548000e+00 1.100200e+01
      vertex -1.055800e+01 3.388000e+00 0.000000e+00
      vertex -1.032000e+01 3.548000e+00 0.000000e+00
    endloop
  endfacet
  facet normal 5.579146e-01 -8.298984e-01 0.000000e+00
    outer loop
      vertex -1.055800e+01 3.388000e+00 0.000000e+00
      vertex -1.032000e+01 3.548000e+00 1.100200e+01
      vertex -1.055800e+01 3.388000e+00 1.100200e+01
    endloop
  endfacet
  facet normal 3.225307e-01 -9.465591e-01 0.000000e+00
    outer loop
      vertex -1.005000e+01 3.640000e+00 1.100200e+01
      vertex -1.032000e+01 3.548000e+00 0.000000e+00
      vertex -1.005000e+01 3.640000e+00 0.000000e+00
    endloop
  endfacet
  facet normal 3.225307e-01 -9.465591e-01 0.000000e+00
    outer loop
      vertex -1.032000e+01 3.548000e+00 0.000000e+00
      vertex -1.005000e+01 3.640000e+00 1.100200e+01
      vertex -1.032000e+01 3.548000e+00 1.100200e+01
    endloop
  endfacet
  facet normal -9.970129e-01 -7.723451e-02 0.000000e+00
    outer loop
      vertex -8.758000e+00 2.786000e+00 1.100200e+01
      vertex -8.736000e+00 2.502000e+00 0.000000e+00
      vertex -8.736000e+00 2.502000e+00 1.100200e+01
    endloop
  endfacet
  facet normal -9.970129e-01 -7.723451e-02 0.000000e+00
    outer loop
      vertex -8.736000e+00 2.502000e+00 0.000000e+00
      vertex -8.758000e+00 2.786000e+00 1.100200e+01
      vertex -8.758000e+00 2.786000e+00 0.000000e+00
    endloop
  endfacet
  facet normal -9.808468e-01 1.947805e-01 0.000000e+00
    outer loop
      vertex -8.736000e+00 2.502000e+00 1.100200e+01
      vertex -8.792001e+00 2.220000e+00 0.000000e+00
      vertex -8.792001e+00 2.220000e+00 1.100200e+01
    endloop
  endfacet
  facet normal -9.808468e-01 1.947805e-01 0.000000e+00
    outer loop
      vertex -8.792001e+00 2.220000e+00 0.000000e+00
      vertex -8.736000e+00 2.502000e+00 1.100200e+01
      vertex -8.736000e+00 2.502000e+00 0.000000e+00
    endloop
  endfacet
  facet normal 8.895868e-01 4.567661e-01 0.000000e+00
    outer loop
      vertex 6.912000e+00 1.079000e+01 0.000000e+00
      vertex 1.046000e+01 3.880000e+00 1.100200e+01
      vertex 1.046000e+01 3.880000e+00 0.000000e+00
    endloop
  endfacet
  facet normal 8.895868e-01 4.567661e-01 0.000000e+00
    outer loop
      vertex 1.046000e+01 3.880000e+00 1.100200e+01
      vertex 6.912000e+00 1.079000e+01 0.000000e+00
      vertex 6.912000e+00 1.079000e+01 1.100200e+01
    endloop
  endfacet
  facet normal 2.005557e-01 9.796823e-01 0.000000e+00
    outer loop
      vertex 1.046000e+01 3.880000e+00 1.100200e+01
      vertex 1.716200e+01 2.508000e+00 0.000000e+00
      vertex 1.046000e+01 3.880000e+00 0.000000e+00
    endloop
  endfacet
  facet normal 2.007787e-01 9.796366e-01 1.415997e-04
    outer loop
      vertex 1.716200e+01 2.508000e+00 0.000000e+00
      vertex 1.046000e+01 3.880000e+00 1.100200e+01
      vertex 2.386600e+01 1.134000e+00 0.000000e+00
    endloop
  endfacet
  facet normal 2.005557e-01 9.796823e-01 -1.416359e-04
    outer loop
      vertex 1.046000e+01 3.880000e+00 1.100200e+01
      vertex 1.716200e+01 2.508000e+00 1.100200e+01
      vertex 2.386600e+01 1.134000e+00 0.000000e+00
    endloop
  endfacet
  facet normal 2.007787e-01 9.796366e-01 0.000000e+00
    outer loop
      vertex 2.386600e+01 1.134000e+00 1.100200e+01
      vertex 2.386600e+01 1.134000e+00 0.000000e+00
      vertex 1.716200e+01 2.508000e+00 1.100200e+01
    endloop
  endfacet
  facet normal 8.985670e-01 -4.388362e-01 0.000000e+00
    outer loop
      vertex -1.074400e+01 3.172000e+00 0.000000e+00
      vertex -1.087000e+01 2.914000e+00 1.100200e+01
      vertex -1.087000e+01 2.914000e+00 0.000000e+00
    endloop
  endfacet
  facet normal 8.985670e-01 -4.388362e-01 0.000000e+00
    outer loop
      vertex -1.087000e+01 2.914000e+00 1.100200e+01
      vertex -1.074400e+01 3.172000e+00 0.000000e+00
      vertex -1.074400e+01 3.172000e+00 1.100200e+01
    endloop
  endfacet
  facet normal -7.188883e-01 -6.951256e-01 0.000000e+00
    outer loop
      vertex -3.334400e+01 4.878000e+00 1.100200e+01
      vertex -2.778600e+01 -8.700001e-01 0.000000e+00
      vertex -2.778600e+01 -8.700001e-01 1.100200e+01
    endloop
  endfacet
  facet normal -7.188883e-01 -6.951256e-01 0.000000e+00
    outer loop
      vertex -2.778600e+01 -8.700001e-01 0.000000e+00
      vertex -3.334400e+01 4.878000e+00 1.100200e+01
      vertex -3.334400e+01 4.878000e+00 0.000000e+00
    endloop
  endfacet
  facet normal 9.805809e-01 -1.961153e-01 0.000000e+00
    outer loop
      vertex -1.087000e+01 2.914000e+00 0.000000e+00
      vertex -1.092600e+01 2.634000e+00 1.100200e+01
      vertex -1.092600e+01 2.634000e+00 0.000000e+00
    endloop
  endfacet
  facet normal 9.805809e-01 -1.961153e-01 0.000000e+00
    outer loop
      vertex -1.092600e+01 2.634000e+00 1.100200e+01
      vertex -1.087000e+01 2.914000e+00 0.000000e+00
      vertex -1.087000e+01 2.914000e+00 1.100200e+01
    endloop
  endfacet
  facet normal -7.543053e-01 6.565238e-01 0.000000e+00
    outer loop
      vertex -8.916000e+00 1.964000e+00 1.100200e+01
      vertex -9.104000e+00 1.748000e+00 0.000000e+00
      vertex -9.104000e+00 1.748000e+00 1.100200e+01
    endloop
  endfacet
  facet normal -7.543053e-01 6.565238e-01 0.000000e+00
    outer loop
      vertex -9.104000e+00 1.748000e+00 0.000000e+00
      vertex -8.916000e+00 1.964000e+00 1.100200e+01
      vertex -8.916000e+00 1.964000e+00 0.000000e+00
    endloop
  endfacet
  facet normal 9.465589e-01 3.225312e-01 0.000000e+00
    outer loop
      vertex -1.090400e+01 2.348000e+00 0.000000e+00
      vertex -1.081200e+01 2.078000e+00 1.100200e+01
      vertex -1.081200e+01 2.078000e+00 0.000000e+00
    endloop
  endfacet
  facet normal 9.465589e-01 3.225312e-01 0.000000e+00
    outer loop
      vertex -1.081200e+01 2.078000e+00 1.100200e+01
      vertex -1.090400e+01 2.348000e+00 0.000000e+00
      vertex -1.090400e+01 2.348000e+00 1.100200e+01
    endloop
  endfacet
  facet normal -7.533672e-01 6.576001e-01 0.000000e+00
    outer loop
      vertex -1.961800e+01 -1.870000e+00 1.100200e+01
      vertex -2.085400e+01 -3.286000e+00 2.750000e+00
      vertex -2.085400e+01 -3.286000e+00 1.100200e+01
    endloop
  endfacet
  facet normal -7.439153e-01 6.682661e-01 -3.245940e-03
    outer loop
      vertex -2.085400e+01 -3.286000e+00 2.750000e+00
      vertex -1.961800e+01 -1.870000e+00 1.100200e+01
      vertex -2.084200e+01 -3.286000e+00 0.000000e+00
    endloop
  endfacet
  facet normal -7.565344e-01 6.539539e-01 0.000000e+00
    outer loop
      vertex -2.084200e+01 -3.286000e+00 0.000000e+00
      vertex -1.961800e+01 -1.870000e+00 1.100200e+01
      vertex -1.961800e+01 -1.870000e+00 0.000000e+00
    endloop
  endfacet
  facet normal 0.000000e+00 1.000000e+00 0.000000e+00
    outer loop
      vertex -1.637400e+01 4.878000e+00 5.500000e+00
      vertex -1.637400e+01 4.878000e+00 0.000000e+00
      vertex -3.334400e+01 4.878000e+00 0.000000e+00
    endloop
  endfacet
  facet normal 0.000000e+00 1.000000e+00 0.000000e+00
    outer loop
      vertex 5.960000e-01 4.878000e+00 1.100200e+01
      vertex 5.960000e-01 4.878000e+00 0.000000e+00
      vertex -1.637400e+01 4.878000e+00 5.500000e+00
    endloop
  endfacet
  facet normal 0.000000e+00 0.000000e+00 -1.000000e+00
    outer loop
      vertex -1.005000e+01 3.640000e+00 0.000000e+00
      vertex -1.637400e+01 4.878000e+00 0.000000e+00
      vertex 5.960000e-01 4.878000e+00 0.000000e+00
    endloop
  endfacet
  facet normal 0.000000e+00 1.000000e+00 0.000000e+00
    outer loop
      vertex -1.637400e+01 4.878000e+00 5.500000e+00
      vertex 5.960000e-01 4.878000e+00 0.000000e+00
      vertex -1.637400e+01 4.878000e+00 0.000000e+00
    endloop
  endfacet
  facet normal 0.000000e+00 0.000000e+00 1.000000e+00
    outer loop
      vertex -1.005000e+01 3.640000e+00 1.100200e+01
      vertex -1.637400e+01 4.878000e+00 1.100200e+01
      vertex -3.334400e+01 4.878000e+00 1.100200e+01
    endloop
  endfacet
  facet normal 0.000000e+00 1.000000e+00 0.000000e+00
    outer loop
      vertex -1.637400e+01 4.878000e+00 5.500000e+00
      vertex -3.334400e+01 4.878000e+00 1.100200e+01
      vertex -1.637400e+01 4.878000e+00 1.100200e+01
    endloop
  endfacet
  facet normal 0.000000e+00 0.000000e+00 1.000000e+00
    outer loop
      vertex 7.338000e+00 -1.204800e+01 1.100200e+01
      vertex 4.190000e+00 -4.836000e+00 1.100200e+01
      vertex 1.796000e+00 -8.458000e+00 1.100200e+01
    endloop
  endfacet
  facet normal 0.000000e+00 0.000000e+00 1.000000e+00
    outer loop
      vertex 5.960000e-01 4.878000e+00 1.100200e+01
      vertex 1.796000e+00 -8.458000e+00 1.100200e+01
      vertex 4.190000e+00 -4.836000e+00 1.100200e+01
    endloop
  endfacet
  facet normal 0.000000e+00 0.000000e+00 1.000000e+00
    outer loop
      vertex 5.960000e-01 4.878000e+00 1.100200e+01
      vertex 4.190000e+00 -4.836000e+00 1.100200e+01
      vertex 6.912000e+00 1.079000e+01 1.100200e+01
    endloop
  endfacet
  facet normal 0.000000e+00 0.000000e+00 1.000000e+00
    outer loop
      vertex 1.796000e+00 -8.458000e+00 1.100200e+01
      vertex 5.960000e-01 4.878000e+00 1.100200e+01
      vertex -3.744000e+00 -4.866000e+00 1.100200e+01
    endloop
  endfacet
endsolid Default
